<svg width="61" height="61" viewBox="0 0 61 61" fill="none" xmlns="http://www.w3.org/2000/svg">
<path d="M54.3858 37.4823L51.2305 18.5501C52.0463 18.3844 52.6602 17.6635 52.6602 16.7988V7.26758C52.6602 6.28048 51.8601 5.48047 50.873 5.48047H43.7246C40.7307 5.48047 38.2018 7.49888 37.4218 10.2461H34.1934C33.2063 10.2461 32.4062 11.0461 32.4062 12.0332C32.4062 13.0203 33.2063 13.8203 34.1934 13.8203H37.4218C37.9993 15.8541 39.5351 17.4885 41.5093 18.1997L44.742 37.5935C41.4823 39.181 39.0944 42.2889 38.5048 45.9883H34.5508V33.4785C34.5508 32.0423 34.0854 30.7141 33.2989 29.633C34.7681 28.6757 35.7422 27.0193 35.7422 25.1387C35.7422 22.1825 33.337 19.7773 30.3809 19.7773H19.6582C18.5859 19.7773 17.5742 20.038 16.6797 20.4964V15.6074C16.6797 14.6203 15.8797 13.8203 14.8926 13.8203H1.78711C0.800011 13.8203 0 14.6203 0 15.6074V28.7129C0 29.7 0.800011 30.5 1.78711 30.5H10.7524C7.10329 33.4511 4.76562 37.9621 4.76562 43.0098V47.7754C4.76562 48.7625 5.56564 49.5625 6.55273 49.5625H9.74161C10.5509 52.9734 13.6202 55.5195 17.2754 55.5195C20.9306 55.5195 23.9999 52.9734 24.8092 49.5625H42.1479C42.9572 52.9734 46.0264 55.5195 49.6816 55.5195C53.3368 55.5195 56.4061 52.9734 57.2154 49.5625H59.2129C60.2 49.5625 61 48.7625 61 47.7754C61 43.2122 58.2854 39.2713 54.3858 37.4823V37.4823ZM43.7246 9.05469H49.0859V15.0117H43.7246C43.5924 15.0117 43.4621 15.0024 43.3341 14.9852C43.3258 14.9843 43.3174 14.9833 43.3085 14.9819C41.8626 14.779 40.7461 13.5346 40.7461 12.0332C40.7461 10.3908 42.0822 9.05469 43.7246 9.05469V9.05469ZM45.1976 18.5859H47.613L50.598 36.4943C50.2955 36.4701 49.9902 36.457 49.6816 36.457C49.1767 36.457 48.6796 36.4905 48.1924 36.5552L45.1976 18.5859ZM49.6816 40.0312C53.3368 40.0312 56.4089 42.5765 57.2178 45.9883H42.1455C42.9544 42.5765 46.0264 40.0312 49.6816 40.0312ZM19.6582 23.3516H30.3809C31.3661 23.3516 32.168 24.1534 32.168 25.1387C32.168 26.1239 31.3661 26.9258 30.3809 26.9258H16.6797V26.3301C16.6797 24.6877 18.0158 23.3516 19.6582 23.3516ZM3.57422 17.3945H13.1055V26.9258H3.57422V17.3945ZM8.33984 43.0098C8.33984 36.1117 13.9516 30.5 20.8496 30.5H27.998C29.6404 30.5 30.9766 31.8361 30.9766 33.4785V45.9883H8.33984V43.0098ZM17.2754 51.9453C15.6153 51.9453 14.1791 50.9698 13.5085 49.5625H21.0423C20.3717 50.9698 18.9354 51.9453 17.2754 51.9453ZM49.6816 51.9453C48.0216 51.9453 46.5854 50.9698 45.9147 49.5625H53.4485C52.7779 50.9698 51.3417 51.9453 49.6816 51.9453Z" fill="white"/>
</svg>
