<svg width="130" height="34" viewBox="0 0 130 34" fill="none" xmlns="http://www.w3.org/2000/svg">
<path d="M43.7822 29.7435C42.8631 29.4287 42.5489 29.3205 42.5489 29.0219C42.5489 28.7402 42.8222 28.5573 43.2529 28.5573C43.7659 28.5573 44.0812 28.8722 44.2469 29.3872L45.2336 28.6325C44.9273 27.9019 44.4221 27.3291 43.2548 27.3291C42.2445 27.3291 41.2095 27.9187 41.2095 29.0471C41.2095 30.0851 41.797 30.4488 43.1557 30.9055C43.8261 31.1294 44.0989 31.3538 44.0989 31.6356C44.0989 31.8674 43.8759 32.0581 43.4867 32.0581C42.799 32.0581 42.3185 31.5639 42.0787 31.1042L41.0684 31.8763C41.4749 32.7718 42.3185 33.3027 43.3624 33.3027C44.6046 33.3027 45.4739 32.5736 45.4739 31.5194C45.4714 30.5818 45.0486 30.175 43.7822 29.7435Z" fill="#EF7B00"/>
<path d="M39.5003 27.4038H38.1562V33.228H39.5003V27.4038Z" fill="#EF7B00"/>
<path d="M20.73 27.4038H19.4141V33.228H23.3716V31.9799H20.73V27.4038Z" fill="#EF7B00"/>
<path d="M27.18 27.3291C25.5697 27.3291 24.417 28.4149 24.417 30.3124C24.417 32.21 25.5697 33.3027 27.18 33.3027C28.7904 33.3027 29.9426 32.2169 29.9426 30.3124C29.9426 28.4079 28.7919 27.3291 27.18 27.3291ZM27.18 32.06C26.3249 32.06 25.7961 31.447 25.7961 30.3198C25.7961 29.1926 26.3269 28.5718 27.18 28.5718C28.0332 28.5718 28.564 29.1852 28.564 30.3198C28.564 31.4544 28.0337 32.06 27.18 32.06Z" fill="#EF7B00"/>
<path d="M48.3113 27.4038H46.9673V33.228H48.3113V27.4038Z" fill="#EF7B00"/>
<path d="M35.0375 30.6119C35.0375 31.7009 34.6257 32.0568 33.9369 32.0568C33.206 32.0568 32.8363 31.6999 32.8363 30.6213V27.4038H31.5106V30.8351C31.5106 32.5632 32.4936 33.3027 33.9379 33.3027C35.3821 33.3027 36.3642 32.5632 36.3642 30.8351V27.4038H35.0375V30.6119Z" fill="#EF7B00"/>
<path d="M95.1763 29.6007H93.1408V27.4038H91.8438V33.228H93.1408V30.8488H95.1763V33.228H96.4733V27.4038H95.1763V29.6007Z" fill="#EF7B00"/>
<path d="M88.1016 32.0596C87.3305 32.0596 86.8002 31.4547 86.8002 30.3258C86.8002 29.1969 87.3305 28.5751 88.1016 28.5751C88.6823 28.5751 89.0061 28.9493 89.0728 29.6783L90.3168 29.405C90.1844 28.0705 89.5206 27.3291 88.1016 27.3291C86.6 27.3291 85.4222 28.4165 85.4222 30.3169C85.4222 32.2173 86.6 33.3027 88.1016 33.3027C89.4459 33.3027 90.1923 32.6058 90.4997 31.3365L89.2384 31.0632C89.0476 31.687 88.7406 32.0596 88.1016 32.0596Z" fill="#EF7B00"/>
<path d="M76.1221 27.4038H74.5541L72.8306 29.5754V27.4038H71.5336V33.228H72.8306V31.4471L73.3148 30.8567L74.5952 33.228H76.1631L74.2504 29.7003L76.1221 27.4038Z" fill="#EF7B00"/>
<path d="M64.4483 27.4038L62.4986 33.228H63.8266L64.2328 31.9472H66.1405L66.5473 33.228H67.8748L65.9255 27.4038H64.4483ZM64.606 30.7402L65.1867 28.9013L65.7674 30.7402H64.606Z" fill="#EF7B00"/>
<path d="M78.7766 27.4038H77.4325V33.228H78.7766V27.4038Z" fill="#EF7B00"/>
<path d="M59.841 31.1893L57.8219 27.4038H56.301V33.228H57.614V29.7003L59.6335 33.228H61.1545V27.4038H59.841V31.1893Z" fill="#EF7B00"/>
<path d="M51.5784 27.4038L49.6554 33.228H50.9647L51.3654 31.9472H53.2469L53.6476 33.228H54.9569L53.0344 27.4038H51.5784ZM51.7334 30.7402L52.3061 28.9013L52.8789 30.7402H51.7334Z" fill="#EF7B00"/>
<path d="M99.6378 30.8815H101.969V29.6334H99.6378V28.6514H102.249V27.4038H98.34V33.228H102.298V31.9799H99.6378V30.8815Z" fill="#EF7B00"/>
<path d="M107.406 31.1893L105.387 27.4038H103.866V33.228H105.179V29.7003L107.198 33.228H108.719V27.4038H107.406V31.1893Z" fill="#EF7B00"/>
<path d="M80.1206 28.6514H81.6765V33.228H82.9703V28.6514H84.5261V27.4038H80.1206V28.6514Z" fill="#EF7B00"/>
<path d="M128.762 17.9208C128.519 17.9219 128.281 17.9952 128.079 18.1314C127.877 18.2676 127.72 18.4607 127.628 18.6862C127.535 18.9117 127.512 19.1594 127.561 19.3982C127.609 19.6369 127.727 19.8559 127.9 20.0275C128.073 20.1991 128.293 20.3155 128.532 20.3621C128.771 20.4087 129.019 20.3834 129.244 20.2893C129.468 20.1952 129.66 20.0366 129.795 19.8335C129.929 19.6304 130.001 19.392 130 19.1484C130 18.9863 129.968 18.8258 129.906 18.6761C129.844 18.5264 129.752 18.3906 129.637 18.2764C129.522 18.1622 129.386 18.072 129.236 18.011C129.085 17.95 128.925 17.9193 128.762 17.9208V17.9208ZM128.762 20.2022C128.184 20.2022 127.745 19.7498 127.745 19.1484C127.745 18.5544 128.184 18.1035 128.762 18.1035C129.332 18.1035 129.774 18.5554 129.774 19.1484C129.774 19.7478 129.334 20.2022 128.762 20.2022V20.2022Z" fill="#EF7B00"/>
<path d="M129.323 18.8633C129.323 18.5518 129.117 18.4435 128.753 18.4435H128.208V19.8622H128.491V19.2542H128.674L129.031 19.8622H129.328L128.94 19.2421C129.155 19.2232 129.323 19.1245 129.323 18.8633ZM128.49 19.037V18.6631H128.735C128.87 18.6631 129.032 18.6858 129.032 18.8416C129.032 19.0147 128.909 19.038 128.747 19.038L128.49 19.037Z" fill="#EF7B00"/>
<path d="M123.282 8.76469C122.207 8.33067 120.912 7.85123 120.069 7.46806C119.244 7.09379 118.953 6.71952 118.953 6.15169C118.953 5.39821 119.731 4.98739 120.723 4.98739C122.241 4.98739 123.426 5.68706 124.492 6.82617L127.835 3.35106C126.403 1.42094 123.94 0.205786 120.8 0.205786C116.545 0.205786 113.224 2.25837 113.224 6.30575C113.224 9.50337 114.766 11.04 117.757 12.3341C118.606 12.7015 119.741 13.0284 120.592 13.3898C121.333 13.7048 121.801 14.0386 121.801 14.6489C121.801 15.2138 121.308 15.6725 119.87 15.6725C118.544 15.6725 116.638 15.1412 115.249 14.2405L113.217 18.403C115.15 19.8018 117.487 20.378 119.877 20.378C123.585 20.378 127.563 18.7723 127.563 14.4529C127.563 11.1975 125.482 9.65248 123.282 8.76469ZM7.7181 0.0290146C5.46785 -0.0771448 1.6325 0.133202 0 0.254668L0.131351 5.12219L1.69522 5.02344V20.1874H7.72353V16.3978C16.5349 15.9771 18.5936 11.2784 18.5936 7.96381C18.595 3.26268 14.7622 0.362799 7.7181 0.0290146ZM7.72353 11.67V5.04567C11.5648 5.22638 12.4887 6.86913 12.4887 8.20871C12.4902 10.1117 11.2152 11.5999 7.72353 11.67ZM67.9524 0.270954C62.131 0.270954 58.1011 4.49413 58.1011 10.3122C58.1011 16.1302 61.8979 20.4595 68.5696 20.4595C71.5537 20.4595 74.1629 19.7356 76.2561 18.1117L73.9042 13.8055C72.3675 14.8716 70.7137 15.4715 68.8244 15.4715C66.313 15.4715 64.8311 14.3235 64.2637 12.3316H77.0976C77.2082 11.7544 77.305 10.6287 77.2951 9.62878C77.2581 5.48906 75.0779 0.270954 67.9524 0.270954ZM64.2143 8.25415C64.6839 6.31563 65.9184 4.99234 67.9731 4.99234C69.9306 4.99234 71.3468 6.13441 71.5092 8.25415H64.2143ZM29.2661 0.391936C23.7291 0.391936 19.1219 4.50301 19.1219 10.3349C19.1219 16.1667 23.7291 20.2778 29.2661 20.2778C34.8031 20.2778 39.4102 16.1667 39.4102 10.3349C39.4102 4.50301 34.8036 0.391936 29.2661 0.391936ZM29.3115 14.9437C26.6213 14.9437 24.9167 12.8743 24.9167 10.2968C24.9167 7.71939 26.6228 5.65003 29.3115 5.65003C32.0003 5.65003 33.7063 7.71939 33.7063 10.2968C33.7063 12.8743 32.0022 14.9437 29.3115 14.9437ZM89.3083 0.978523L85.5297 9.12563L81.9111 0.978523H75.3688L82.3521 14.8943V20.2072H88.6283V14.9022L95.9736 0.978028L89.3083 0.978523ZM46.8483 0.228497C44.6203 0.123819 40.824 0.331696 39.2063 0.452174L39.3362 5.27131L40.8852 5.17255V20.1865H46.8543V16.4338C55.5787 16.0176 57.6191 11.3654 57.6191 8.0833C57.6166 3.43007 53.8223 0.556851 46.8479 0.228497H46.8483ZM46.8548 11.7554V5.19576C50.657 5.3745 51.573 7.00097 51.573 8.32722C51.573 10.2114 50.3099 11.6848 46.8543 11.7554H46.8548ZM103.411 0.270954C97.5893 0.270954 93.5599 4.49413 93.5599 10.3122C93.5599 16.1302 97.4471 20.459 103.974 20.459C106.694 20.459 109.06 19.8665 111.04 18.523L108.872 14.0618C107.451 14.9753 105.962 15.471 104.23 15.471C101.826 15.471 100.319 14.323 99.7329 12.3311H112.553C112.664 11.7539 112.763 10.6282 112.754 9.62828C112.716 5.48906 110.535 0.270954 103.411 0.270954H103.411ZM99.6722 8.25415C100.142 6.31563 101.376 4.99234 103.43 4.99234C105.388 4.99234 106.818 6.15515 106.967 8.25415H99.6722Z" fill="#EF7B00"/>
</svg>
