<svg width="67" height="43" viewBox="0 0 67 43" fill="none" xmlns="http://www.w3.org/2000/svg">
<path fill-rule="evenodd" clip-rule="evenodd" d="M37.4109 0.168701C37.7711 0.168701 38.2215 0.168701 38.5818 0.213737C38.7619 0.213737 39.0321 0.213736 39.1222 0.303808C39.2123 0.393879 39.3924 1.06941 39.5726 1.69991C40.158 3.32119 40.7435 4.58219 41.0587 6.06836C41.1038 6.33858 41.374 7.32936 41.5091 7.59957C41.5091 6.24851 41.5992 4.94247 41.5992 4.26694C41.5992 2.96091 41.5091 3.00594 41.5091 1.69991C41.5091 1.4297 41.5541 0.528986 41.5541 0.393879C41.5541 0.258772 42.1396 0.258773 42.4548 0.258773C42.7701 0.258773 43.3556 0.258772 43.3556 0.393879C43.3556 0.528986 43.3556 0.844235 43.3556 1.06941C43.4006 3.00594 43.5357 5.57297 43.3556 7.19425C43.2655 8.81553 43.2655 10.707 43.1754 12.5085C43.1754 12.8237 43.1754 13.3191 43.1304 13.4092C43.0853 13.4992 42.8151 13.5443 42.2747 13.4542C42.0045 13.4092 41.7793 13.5443 41.5541 13.3641C41.4641 13.2741 41.374 13.0489 41.2839 12.7787C41.1938 12.5085 41.1488 12.1932 41.0587 11.923C40.9687 11.4726 40.6084 10.1666 40.3832 9.71625C39.9329 8.81553 39.7527 7.91482 39.5726 7.3744C39.4375 6.879 39.3024 6.29354 39.0321 5.88822C38.897 7.01411 38.9871 10.2567 38.9871 11.7879C38.9871 12.2382 39.0321 12.6886 38.897 13.139C38.852 13.4542 38.2215 13.2741 37.6811 13.4092C37.4109 13.4542 37.0055 13.4092 37.0506 13.2741C37.0506 13.139 37.0506 12.9138 37.0506 12.6886C37.0506 9.94142 37.3658 7.55454 37.2307 4.49212C37.1857 3.54637 37.2307 2.64566 37.2758 1.88005C37.2758 1.33963 37.1857 0.619057 37.3658 0.258773C37.3208 0.213737 37.3658 0.168701 37.4109 0.168701Z" fill="#CE0E2D"/>
<path fill-rule="evenodd" clip-rule="evenodd" d="M25.3413 13.4542C24.6657 13.5893 24.0352 13.4542 23.8551 13.4091C23.675 13.3641 23.675 12.8237 23.675 12.4634C23.5849 10.662 23.765 8.72543 23.675 6.83393C23.5399 4.67223 23.5849 3.09598 23.72 1.20449C23.72 0.889238 23.675 0.483917 23.765 0.348811C23.8101 0.258739 24.1704 0.25874 24.4406 0.213704C25.4313 0.123633 26.9175 0.0335616 27.548 0.348811C29.2594 1.06938 28.809 4.53712 28.7189 6.87897C28.6739 7.86975 28.7189 8.59032 28.7189 9.53607C28.7189 10.4368 28.809 11.4726 28.5838 12.0581C28.0884 13.4091 26.9175 13.229 25.3413 13.4542ZM26.1519 11.8779C26.4221 11.8329 26.6923 11.6978 26.7824 11.5176C27.0076 11.1123 26.9175 9.98643 26.9175 9.31089V4.53712C26.9175 3.77152 27.0076 2.69066 26.8275 2.24031C26.7374 2.06016 26.5122 1.92506 26.287 1.88002C26.0618 1.74491 25.7916 1.74491 25.6115 1.83499C25.5665 2.01513 25.5214 2.28534 25.5214 2.60059C25.5214 3.14102 25.4313 4.22187 25.4764 4.71726C25.5665 6.20344 25.5214 7.95983 25.6115 9.49104C25.7016 10.8421 25.5214 11.6978 25.5214 11.7428C25.5665 11.968 25.9718 11.923 26.1519 11.8779Z" fill="#CE0E2D"/>
<path fill-rule="evenodd" clip-rule="evenodd" d="M34.4384 0.393811C35.5643 0.889202 35.6093 1.33956 35.6994 4.35694C35.7444 5.70801 35.5643 6.78886 35.5643 7.73461C35.5643 8.63532 34.8888 10.3016 33.1774 10.3467C32.8622 10.3467 31.9615 10.1665 31.6912 9.98639C30.9707 9.44596 30.5203 8.45518 30.3852 7.23922C30.2951 6.38354 30.4302 6.33851 30.4302 5.21262C30.4302 3.72644 30.3402 3.00588 30.6554 1.97006C30.9256 1.20445 31.5561 0.348775 32.2317 0.123597C32.9522 -0.191652 33.9881 0.168633 34.4384 0.393811ZM33.7629 8.13993C33.9881 7.5995 33.8079 6.33851 33.8079 5.84312V4.44701C33.8079 3.72644 33.898 2.55552 33.7178 2.24027C33.5827 1.97006 32.9973 1.78991 32.637 1.92502C32.2767 2.10516 32.2767 3.27609 32.2767 4.08673C32.2317 5.97822 32.2317 3.95162 32.2317 5.79808C32.2317 7.10411 31.9615 8.77043 33.1324 8.54525C33.3576 8.50022 33.6728 8.36511 33.7629 8.13993Z" fill="#CE0E2D"/>
<path fill-rule="evenodd" clip-rule="evenodd" d="M30.4752 13.229C30.4752 13.3191 30.9256 13.3641 31.6011 13.3191C32.2766 13.3191 34.2132 13.4092 34.2132 13.4092C34.2132 13.4092 35.3391 13.5443 35.4291 13.4542C35.6543 13.229 35.4742 12.8687 35.5642 12.4184C35.6993 11.6528 35.5642 11.2024 35.5192 11.0673C35.4742 10.9772 35.0688 11.0673 34.1681 11.2475C33.2674 11.4726 30.4752 11.4726 30.4752 11.923C30.4752 12.1932 30.4752 13.139 30.4752 13.229Z" fill="#CE0E2D"/>
<path fill-rule="evenodd" clip-rule="evenodd" d="M19.9369 16.6517C19.9369 16.7868 20.1171 18.4081 19.8919 21.1103C19.7568 22.7766 19.8919 28.0007 19.8468 30.2074C20.5224 30.3426 23.855 30.2975 25.6114 30.2975C26.1518 30.2975 26.6022 30.2525 26.7823 30.2975C26.9625 30.3876 26.9625 30.7028 26.9174 31.4684C26.8724 32.144 27.0075 32.7294 26.8274 32.7294C26.5571 32.7745 26.0618 32.7294 25.5664 32.7294C24.6206 32.7294 23.7649 32.5493 21.8734 32.6394C20.072 32.7294 19.8468 32.6394 18.9912 32.6394C18.4507 32.6394 17.9103 32.6844 17.7752 32.6394C17.5951 32.5493 17.55 31.3784 17.505 30.7028C17.4149 28.7213 17.505 26.6947 17.505 24.6681C17.505 21.9209 17.505 16.967 17.505 16.5617C17.4149 16.2014 19.9369 16.4266 19.9369 16.6517Z" fill="#CE0E2D"/>
<path fill-rule="evenodd" clip-rule="evenodd" d="M34.5734 20.3447C34.5734 20.75 34.5734 21.4255 34.4383 21.5156C34.3032 21.6057 33.8979 21.6057 33.4925 21.5606C33.0422 21.5156 32.6369 21.6057 32.5018 21.5606C32.4117 21.5156 32.5468 20.6599 32.5918 20.0745C32.6369 19.3089 32.5018 18.7234 32.0514 18.5883C30.3401 18.3631 30.6103 20.2546 30.9706 21.3355C31.3308 22.2812 32.4117 23.1819 33.2674 24.2628C34.033 25.2085 34.9337 26.5146 35.1138 27.5954C35.4741 29.8022 34.9337 31.8738 33.4475 32.5493C31.7362 33.3149 29.8897 32.7295 29.2142 31.7387C28.5837 30.883 28.3135 29.4419 28.5386 28.6312C28.7638 27.7305 28.4936 27.3252 28.7188 26.9649C28.7638 26.8748 29.4393 26.9199 29.7996 26.9199C30.1599 26.9199 30.8354 26.8748 30.8354 27.055C30.8354 27.2351 30.8354 27.6404 30.8354 28.0458C30.7904 29.3968 30.7454 31.0181 32.2316 30.6578C33.3124 30.3876 32.9071 28.0458 32.5918 27.3702C32.1865 26.5146 31.1507 25.794 30.3851 24.8032C29.6645 23.8575 28.6287 22.3262 28.4936 20.8851C28.4035 19.9394 28.6287 18.9486 28.8088 18.3631C28.989 17.7777 29.3493 17.0571 29.8897 16.6518C30.5202 16.2014 31.511 16.1113 32.9972 16.5167C34.2582 16.8769 34.6184 18.4532 34.5734 20.3447Z" fill="#CE0E2D"/>
<path fill-rule="evenodd" clip-rule="evenodd" d="M49.3902 24.3978C49.8856 24.623 50.381 24.8482 50.6061 25.4337C51.1916 26.7397 50.7412 29.4418 50.9214 31.2883C50.9664 31.9638 51.1466 32.4142 51.2366 32.5943C51.3267 32.7745 50.8764 32.7294 50.0657 32.6393C49.4803 32.5943 49.0749 32.7294 48.8498 32.6844C48.7146 32.6393 48.5795 32.0089 48.5345 31.6035C48.3994 30.3425 48.4444 28.6762 48.3994 27.3702C48.3544 26.1542 48.3544 25.5237 47.3636 25.1184C47.2285 25.0734 46.8232 24.9383 46.8232 25.2085C46.8232 25.3436 46.8232 25.4787 46.8232 25.7039C46.8232 26.6496 46.8232 27.3702 46.7331 28.361C46.643 29.3968 46.8232 30.5677 46.8232 31.6035C46.8232 31.9638 46.8232 32.5042 46.8232 32.6844C46.8232 32.8195 46.1927 32.6844 45.4721 32.7745C44.7515 32.8645 44.4363 32.7745 44.4363 32.6393C44.4363 32.4592 44.4363 32.0539 44.3912 31.7386C44.3462 30.3876 44.5263 28.361 44.3912 26.2893C44.3012 24.1727 44.3912 21.7407 44.4813 20.2996C44.5263 19.1287 44.3012 18.0929 44.3012 17.1471C44.3012 17.012 44.2561 16.5616 44.4813 16.5616C45.382 16.5616 46.2377 16.5616 47.0483 16.5616C48.8498 16.6067 49.9306 16.7418 50.471 18.0478C51.0565 19.3539 51.0115 22.011 50.471 23.1819C50.2909 23.5872 49.7955 24.0826 49.3902 24.3978ZM48.0391 18.7684C47.8139 18.6333 47.5437 18.5432 47.3185 18.5432C47.1384 18.5432 46.9583 18.6333 46.8682 18.8134C46.8682 19.0836 46.8682 19.3539 46.8682 19.6241C46.8682 20.795 46.8232 21.8758 46.8682 22.9567C46.8682 23.1368 46.8232 23.5422 47.0033 23.5872C47.1384 23.6322 47.3636 23.5872 47.4987 23.5422C47.7689 23.4521 48.1292 23.362 48.2643 23.2269C48.3544 23.0918 48.3994 22.6414 48.4444 22.3262C48.5345 21.4705 48.6246 20.8851 48.5345 19.7592C48.5345 19.579 48.4444 19.1737 48.3994 19.0836C48.2643 18.9035 48.2193 18.8585 48.0391 18.7684Z" fill="#CE0E2D"/>
<path fill-rule="evenodd" clip-rule="evenodd" d="M23.3596 18.6784C23.3145 19.5791 23.2695 20.2546 23.2695 20.9752C23.2245 22.011 23.2695 22.8667 23.2695 23.9475C23.2695 24.6231 23.2245 25.2536 23.2245 26.0642C22.8191 26.0642 21.8734 26.0642 21.8284 26.1993C21.7833 26.3344 21.6932 28.1809 21.8734 28.2259C22.2337 28.316 22.9542 28.2709 23.6748 28.316C24.6206 28.361 26.7823 28.5412 26.7823 28.361C26.8273 28.1809 26.8273 27.055 26.8723 26.3794C26.8273 26.2443 26.7823 26.1543 26.6021 26.1543C26.467 26.1092 25.7464 26.1543 25.4312 26.1543C25.4312 25.1184 25.5663 23.8124 25.5663 22.6415C25.6113 21.4255 25.5663 20.2546 25.5213 18.7684C25.8365 18.7234 26.7823 18.7234 26.8273 18.5883C26.8273 18.5433 26.8273 18.1379 26.8723 17.6876C26.9174 17.2372 26.8273 16.7869 26.7823 16.6968C26.6922 16.5617 25.9266 16.5167 25.2511 16.5167C24.3053 16.4716 23.7198 16.6067 23.1344 16.5617C22.7741 16.5617 21.9184 16.4716 21.8284 16.5617C21.7833 16.6968 21.7383 17.0571 21.7383 17.3273C21.7383 17.6876 21.7833 18.0028 21.7833 18.3631C21.8284 18.4982 21.7833 18.6333 21.9184 18.6333C22.0535 18.6784 22.9542 18.6333 23.3596 18.6784Z" fill="#CE0E2D"/>
<path fill-rule="evenodd" clip-rule="evenodd" d="M15.6586 31.4234C15.7486 30.3425 15.4784 29.8021 15.6135 27.8205C15.6135 27.6854 15.4784 27.6404 15.3433 27.5954C14.6678 27.6404 13.5419 27.5053 13.4518 27.6854C13.3618 27.8656 13.3618 29.8471 13.4969 30.6578C13.0015 30.6578 12.5061 30.6578 12.1008 30.5677C12.1008 28.9014 11.9657 27.4603 12.0557 25.9741C12.0557 25.7939 12.0557 25.4336 12.1458 25.3886C12.2359 25.3886 12.416 25.3886 12.5511 25.3886C13.1366 25.3886 13.8571 25.4336 14.0373 25.3886C14.2174 25.3436 14.2174 23.4971 14.0373 23.362C13.9022 23.2719 13.1816 23.317 12.5511 23.362C12.371 23.362 12.1008 23.4521 12.0557 23.317C12.0557 23.1819 11.9657 22.7315 11.9657 22.1461C12.0107 21.5606 11.9657 19.0386 12.0107 18.8134C12.0557 18.6333 12.2359 18.6783 12.7763 18.6783H13.4518C13.3618 19.489 13.2717 20.0744 13.4518 21.6056C14.0373 21.6957 14.6678 21.6507 15.3433 21.6957C15.4784 21.6507 15.5685 21.6507 15.6135 21.5606C15.4784 19.7141 15.7486 19.2187 15.7036 18.1379C15.7036 17.7326 15.6586 16.6967 15.5235 16.6517C15.3433 16.5616 14.7128 16.5616 13.9923 16.6067C12.5961 16.6517 11.3802 16.5616 10.0291 16.5166C9.93905 16.5616 9.75891 16.5166 9.75891 16.8319C9.75891 16.967 9.48869 18.3631 9.71387 20.5248C9.98408 22.8216 9.6238 26.4244 9.66883 29.0365C9.71387 30.2975 9.71387 32.6844 10.0742 32.7745C10.4795 32.8645 11.5153 32.6844 12.8213 32.8195C14.0823 32.9996 15.2983 32.8195 15.4334 32.7294C15.6135 32.5943 15.6135 31.7386 15.6586 31.4234Z" fill="#CE0E2D"/>
<path fill-rule="evenodd" clip-rule="evenodd" d="M55.9205 30.3425C56.0105 26.1542 56.1006 22.9567 56.0105 18.9035C56.1907 18.9035 56.4159 18.9035 56.641 18.8585C56.8662 18.8585 57.2265 18.8585 57.3616 18.7234C57.4967 18.5883 57.4066 18.273 57.4066 18.0028C57.4066 17.7326 57.4066 17.5074 57.4066 17.2822C57.4066 17.012 57.4066 16.6517 57.2715 16.6067C57.1364 16.5617 55.4251 16.5166 54.7946 16.6067C54.2091 16.6968 53.6687 16.6517 53.2634 16.6517C52.813 16.6067 52.7229 16.6067 52.4978 16.6067C52.2726 16.6067 52.3176 17.057 52.3176 17.3273C52.3176 17.7326 52.3176 18.1829 52.2726 18.5883C52.2726 18.7234 52.4077 18.8134 52.6329 18.8585C52.813 18.9035 53.3084 18.8134 53.6237 18.8134C53.6687 22.9567 53.3985 26.3794 53.5786 30.4326C53.3985 30.4326 53.0832 30.4326 52.858 30.4777C52.6329 30.5227 52.4077 30.4776 52.3627 30.6578C52.3176 30.8379 52.3627 31.1982 52.3176 31.5135C52.3176 31.9188 52.3176 32.3241 52.3627 32.6394C52.3176 32.8195 53.0382 32.8195 54.3442 32.8195C54.8846 32.8195 55.7403 32.7745 56.3708 32.7745C56.6861 32.7745 57.0914 32.8195 57.2265 32.7294C57.3616 32.6844 57.3166 32.234 57.3166 31.9638C57.3166 31.5585 57.3166 31.1982 57.3616 30.7929C57.3166 30.6578 57.3616 30.5227 57.0464 30.5227C56.8212 30.4326 56.2808 30.3425 55.9205 30.3425Z" fill="#CE0E2D"/>
<path fill-rule="evenodd" clip-rule="evenodd" d="M66.9992 25.0733C67.0442 24.8932 65.3779 23.4521 65.0176 23.1818C65.0176 19.3088 64.9276 15.751 61.2346 16.2914C60.1538 16.4265 59.7935 16.9219 59.2981 17.8676C59.0279 18.363 58.7126 19.0386 58.5775 19.534C58.3524 20.5698 58.4875 22.4162 58.4875 24.1726C58.4875 25.929 58.3974 27.7755 58.4875 29.0365C58.6226 30.7929 59.2531 32.234 59.9736 32.5493C60.6942 32.8645 61.8201 33.1347 62.7208 32.5943C63.3963 32.189 64.5222 31.6035 64.6123 30.3425C64.7024 29.0815 64.9726 27.9556 64.9726 26.5145C65.0627 26.5595 66.9542 25.3436 66.9992 25.0733ZM62.7658 24.1726C62.8559 26.3343 62.7658 27.0549 62.7208 28.3609C62.6758 29.1265 62.7658 30.4326 62.0453 30.6578C61.5949 30.7929 61.0995 30.6127 60.8744 30.2975C60.6942 29.9822 60.469 25.3886 60.7843 21.4255C60.8744 20.4797 60.6041 18.9485 61.1446 18.6783C61.3247 18.4081 62.2254 18.4531 62.3605 18.6783C62.8559 19.7141 62.6758 22.2811 62.7658 24.1726Z" fill="#CE0E2D"/>
<path fill-rule="evenodd" clip-rule="evenodd" d="M7.82235 25.4337C7.372 24.4429 6.87661 24.533 6.56136 24.1277C6.78653 23.7224 7.14682 23.7224 7.55214 22.7316C7.77732 22.1461 7.95746 21.1103 7.82235 20.2096C7.68725 19.3089 7.68725 18.4082 7.46207 17.9578C6.7415 16.2014 4.66986 16.4266 2.01276 16.4716C1.87765 16.5167 1.83262 16.6067 1.83262 16.7419C1.83262 17.9128 1.69751 17.9578 1.78758 19.3089C1.87765 20.4348 1.83262 21.9209 1.83262 22.8667L0.931907 23.5422C0.931907 23.5422 0.211337 24.0827 0.0762306 24.2178C-0.103912 24.3529 -0.0138401 24.578 0.886872 25.3437C1.29219 25.6139 1.47233 25.9741 1.87765 26.1543C1.78758 28.271 1.96773 29.9823 1.96773 31.2433C1.96773 31.7837 2.0578 32.4593 2.0578 32.6394C2.0578 32.8196 2.41808 32.8196 2.77837 32.8196C4.2195 32.7295 5.61561 32.9096 6.20107 32.8196C6.42625 32.7745 6.83157 32.5944 7.05675 32.3692C7.64221 31.8738 7.95746 30.7479 8.18264 29.4869C8.54292 27.9557 8.31774 26.4695 7.82235 25.4337ZM4.17447 18.6334C4.30958 18.4982 5.39043 18.3631 5.52554 19.0837C5.57057 19.3089 5.75072 21.5607 5.52554 22.7316C5.34539 23.0468 4.7149 23.3171 4.30958 23.1819C4.0844 23.0919 4.17447 23.0468 4.17447 22.4163C4.17447 21.8309 4.0844 21.1553 4.12943 20.3897C4.17447 19.444 4.12943 19.1287 4.17447 18.6334ZM5.88582 30.2525C5.57057 30.7479 4.39965 30.9731 4.30958 30.7029C4.17447 30.3426 4.26454 27.055 4.21951 25.2986C4.62483 24.7582 5.57057 25.1185 5.79575 25.3887C6.111 25.794 6.06596 26.8298 6.20107 27.7756C6.29114 28.8114 6.02093 29.8922 5.88582 30.2525Z" fill="#CE0E2D"/>
<path fill-rule="evenodd" clip-rule="evenodd" d="M42.95 31.5585C42.2295 25.7038 41.6891 22.3262 41.6891 21.5155C41.644 19.8942 41.3288 18.8134 41.1036 17.1921C41.0586 16.9669 41.0135 16.6967 41.0135 16.5616C41.0135 16.4715 40.383 16.4715 40.0678 16.4715C38.7617 16.5616 38.3564 16.4265 37.6809 16.3815C37.4557 16.3815 36.9153 16.3815 36.9153 16.5616C36.9153 16.7418 36.9153 17.1471 36.9153 17.4173C36.9153 17.8676 36.8252 18.1379 36.8252 18.5882C36.8702 18.7233 36.8702 18.8584 37.0054 18.9035C37.1405 18.9485 37.5908 18.9935 37.861 18.9935C37.2756 23.1818 36.7351 27.2801 36.2848 31.6035C36.2397 31.9638 36.0596 32.6393 36.2397 32.6844C36.3749 32.7294 36.6901 32.7294 36.9603 32.7294C37.4557 32.6844 37.6359 32.7294 37.9061 32.5943C38.3564 31.9187 37.9961 30.5226 38.4465 29.8471C39.1671 29.8471 39.9327 29.8471 40.4731 30.0273C40.6532 30.5226 40.6532 31.1531 40.6983 31.7386C40.7433 32.0539 40.7883 32.6844 40.9685 32.6844C41.3288 32.7294 41.644 32.6844 42.0043 32.6844C42.4096 32.6844 42.95 32.6393 42.9951 32.5492C43.1302 32.5042 42.9951 31.8737 42.95 31.5585ZM38.6266 27.8655C38.7617 25.7038 39.077 23.7223 39.3472 21.6957C39.4373 21.6957 39.4373 21.7407 39.4373 21.7857C40.0678 23.4521 39.8876 25.974 40.2029 27.9556C39.7525 28.1358 39.077 27.9556 38.6266 27.8655Z" fill="#CE0E2D"/>
<path d="M10.8398 42.1419H10.1643V37.8185H11.2001C11.7406 37.8185 12.0108 38.0887 12.0108 38.6291V39.755C12.0108 40.2954 11.7406 40.5657 11.2001 40.5657H10.8398V42.1419ZM11.1101 38.449H10.8398V40.0252H11.1101C11.2902 40.0252 11.3352 39.9352 11.3352 39.755V38.6742C11.3352 38.5391 11.2452 38.449 11.1101 38.449Z" fill="#CE0E2D"/>
<path d="M14.3074 42.1869H13.9471C13.4067 42.1869 13.1365 41.9167 13.1365 41.3763V38.5841C13.1365 38.0437 13.4067 37.7734 13.9471 37.7734H14.3074C14.8478 37.7734 15.118 38.0437 15.118 38.5841V41.3763C15.073 41.9167 14.8478 42.1869 14.3074 42.1869ZM14.1723 38.4039H14.0372C13.857 38.4039 13.767 38.494 13.767 38.6741V41.3763C13.767 41.5564 13.857 41.6465 14.0372 41.6465H14.1723C14.3524 41.6465 14.3975 41.5564 14.3975 41.3763V38.6741C14.4425 38.494 14.3524 38.4039 14.1723 38.4039Z" fill="#CE0E2D"/>
<path d="M17.0546 37.8635V41.5564H17.7751V42.1419H16.379V37.8185H17.0546V37.8635Z" fill="#CE0E2D"/>
<path d="M19.6667 37.865V41.5579H20.3873V42.1434H18.9912V37.8199H19.6667V37.865Z" fill="#CE0E2D"/>
<path d="M22.7292 42.1869H22.3689C21.8284 42.1869 21.5582 41.9167 21.5582 41.3763V38.5841C21.5582 38.0437 21.8284 37.7734 22.3689 37.7734H22.7292C23.2696 37.7734 23.5398 38.0437 23.5398 38.5841V41.3763C23.5398 41.9167 23.2696 42.1869 22.7292 42.1869ZM22.6391 38.4039H22.504C22.3238 38.4039 22.2338 38.494 22.2338 38.6741V41.3763C22.2338 41.5564 22.3238 41.6465 22.504 41.6465H22.6391C22.8192 41.6465 22.8643 41.5564 22.8643 41.3763V38.6741C22.8643 38.494 22.8192 38.4039 22.6391 38.4039Z" fill="#CE0E2D"/>
<path d="M26.7372 40.7008V41.4213C26.7372 41.9618 26.467 42.232 25.9266 42.232H25.6563C25.1159 42.232 24.8457 41.9618 24.8457 41.4213V40.5206H25.4762V41.4213C25.4762 41.6015 25.5663 41.6465 25.7464 41.6465H25.8365C26.0166 41.6465 26.1067 41.5564 26.1067 41.4213V40.8359C26.1067 40.6557 26.0617 40.5657 25.9266 40.4756L25.251 39.9802C24.9808 39.755 24.8907 39.5749 24.8907 39.2596V38.6742C24.8907 38.1337 25.1609 37.8635 25.7014 37.8635H25.9716C26.512 37.8635 26.7822 38.1337 26.7822 38.6742V39.4398H26.0617V38.6742C26.0617 38.494 25.9716 38.449 25.7914 38.449H25.7014C25.5212 38.449 25.4762 38.5391 25.4762 38.6742V39.1696C25.4762 39.3497 25.5212 39.4398 25.6563 39.5298L26.3319 40.0252C26.6471 40.1603 26.7372 40.3405 26.7372 40.7008Z" fill="#CE0E2D"/>
<path d="M31.7812 42.1419H31.1507L31.0607 41.4664H30.3851L30.295 42.1419H29.6646L30.295 37.8185H31.1507L31.7812 42.1419ZM30.4302 40.8809H30.9706L30.7004 38.7192L30.4302 40.8809Z" fill="#CE0E2D"/>
<path d="M35.384 37.8635V41.5564H36.1046V42.1419H34.7085V37.8185H35.384V37.8635Z" fill="#CE0E2D"/>
<path d="M39.3474 42.1419H38.6718L38.5818 41.4664H37.9062L37.8162 42.1419H37.1857L37.8162 37.8185H38.6718L39.3474 42.1419ZM37.9963 40.8809H38.5367L38.2665 38.7192L37.9963 40.8809Z" fill="#CE0E2D"/>
<path d="M44.031 40.5663V41.3769C44.031 41.9173 43.7608 42.1876 43.2204 42.1876H42.1395V37.8641H43.2204C43.7608 37.8641 44.031 38.1344 44.031 38.6748V39.3053C44.031 39.7106 43.8959 39.8907 43.6707 39.9808C43.8959 40.0258 44.031 40.206 44.031 40.5663ZM43.1303 38.4496H42.8151V39.7106H43.0853C43.2654 39.7106 43.3555 39.6205 43.3555 39.4404V38.6748C43.3555 38.5397 43.3105 38.4496 43.1303 38.4496ZM42.8151 41.6021H43.1303C43.3105 41.6021 43.4005 41.512 43.4005 41.3319V40.5212C43.4005 40.3411 43.3105 40.251 43.1303 40.251H42.8151V41.6021Z" fill="#CE0E2D"/>
<path d="M47.2736 40.7008V42.1419H46.598V40.7008C46.598 40.5206 46.508 40.4305 46.3278 40.4305H46.0126V42.1419H45.337V37.8185H46.4179C46.9583 37.8185 47.2285 38.0887 47.2285 38.6291V39.4398C47.2285 39.8451 47.0934 40.0252 46.8682 40.1153C47.1385 40.2054 47.2736 40.3855 47.2736 40.7008ZM46.3278 38.449H46.0126V39.8901H46.3278C46.508 39.8901 46.598 39.8 46.598 39.6199V38.7192C46.598 38.5391 46.508 38.449 46.3278 38.449Z" fill="#CE0E2D"/>
<path d="M50.5611 42.1419H49.9306L49.8406 41.4664H49.165L49.075 42.1419H48.4445L49.075 37.8185H49.9306L50.5611 42.1419ZM49.2101 40.8809H49.7505L49.4803 38.7192L49.2101 40.8809Z" fill="#CE0E2D"/>
<path d="M53.6235 40.7008V41.4213C53.6235 41.9618 53.3533 42.232 52.8129 42.232H52.5427C52.0023 42.232 51.7321 41.9618 51.7321 41.4213V40.5206H52.3626V41.4213C52.3626 41.6015 52.4526 41.6465 52.6328 41.6465H52.7228C52.903 41.6465 52.9931 41.5564 52.9931 41.4213V40.8359C52.9931 40.6557 52.948 40.5657 52.8129 40.4756L52.1374 39.9802C51.8221 39.755 51.7321 39.5749 51.7321 39.2596V38.6742C51.7321 38.1337 52.0023 37.8635 52.5427 37.8635H52.8129C53.3533 37.8635 53.6235 38.1337 53.6235 38.6742V39.4398H52.9931V38.6742C52.9931 38.494 52.903 38.449 52.7228 38.449H52.6328C52.4526 38.449 52.4076 38.5391 52.4076 38.6742V39.1696C52.4076 39.3497 52.4526 39.4398 52.5877 39.5298L53.2633 40.0252C53.5335 40.1603 53.6235 40.3405 53.6235 40.7008Z" fill="#CE0E2D"/>
<path d="M56.9112 42.1419H56.2357L56.1456 41.4664H55.4701L55.38 42.1419H54.7495L55.38 37.8185H56.2357L56.9112 42.1419ZM55.5602 40.8809H56.1006L55.8304 38.7192L55.5602 40.8809Z" fill="#CE0E2D"/>
</svg>
