<svg width="82" height="33" viewBox="0 0 82 33" fill="none" xmlns="http://www.w3.org/2000/svg">
<path fill-rule="evenodd" clip-rule="evenodd" d="M75.0978 14.5787C69.6166 11.4143 56.9025 8.19345 51.5344 7.74139L47.5224 7.40235C43.2278 7.06331 40.8545 6.83728 38.9898 6.83728C37.1816 6.83728 26.4453 7.68488 26.4453 7.68488C21.0771 8.13694 8.36305 11.3578 2.88188 14.5222C0.282556 15.9914 0 17.065 0 20.5685V29.4966C0 30.2312 0.113014 31.3048 0.847604 32.0959C1.69521 33 2.82536 33 4.18153 33H4.29455H73.6851H73.7981C75.0978 33 76.2279 33 77.132 32.0959C77.8666 31.3048 77.9796 30.2312 77.9796 29.4966V20.625C77.9796 17.1215 77.6971 16.0479 75.0978 14.5787Z" fill="#00724C"/>
<path fill-rule="evenodd" clip-rule="evenodd" d="M77.1321 29.5532C77.1321 30.1183 77.0756 30.9093 76.5105 31.4744C75.8889 32.1525 75.0413 32.1525 73.7982 32.1525H73.6851H4.29459H4.18157C2.99493 32.1525 2.09082 32.1525 1.46924 31.4744C0.960682 30.9093 0.904175 30.1183 0.904175 29.5532V20.6251C0.904175 17.2347 1.1867 16.6131 3.33397 15.3699C8.75864 12.262 21.2467 9.09766 26.5583 8.6456L30.5703 8.30656C34.8649 7.798 37.2382 7.62848 39.0464 7.62848C40.8546 7.62848 43.5104 7.74149 47.4659 8.30656L51.4779 8.6456C56.7896 9.04115 69.2776 12.262 74.7023 15.3699C76.8495 16.6131 77.1321 17.2347 77.1321 20.6251V29.5532Z" fill="white"/>
<path d="M55.8854 4.69014L55.3768 4.52062C55.2638 4.46411 51.9864 3.61651 50.9128 3.56L51.1388 2.26034C51.1388 2.14733 51.1388 2.09082 51.0258 1.9778C50.5738 1.35623 45.7707 6.10352e-05 38.9333 6.10352e-05C32.1525 6.10352e-05 27.1799 1.29972 26.7278 1.86479C26.6713 1.9778 26.6148 2.03431 26.6713 2.14733L27.0104 3.61651C25.9367 3.67301 22.7158 4.52062 22.5463 4.57713L22.0377 4.74665L22.3203 5.08569L24.2415 7.11994L23.8459 10.5669L23.7895 11.0189L24.2415 10.9059C24.6371 10.7929 25.0891 10.6799 25.5412 10.5104C26.6148 10.1713 27.9145 9.83227 28.7621 9.83227C28.7621 9.83227 29.4401 9.83227 30.0617 9.77577C30.2877 9.77577 30.4008 9.71926 30.4573 9.54974C30.5138 9.2672 29.7792 8.75864 29.6097 8.64563C29.9487 8.36309 35.1473 7.79802 38.9898 7.79802C39.0463 7.79802 39.1028 7.79802 39.1594 7.79802C43.0583 7.79802 48.0874 8.36309 48.37 8.64563C48.2005 8.75864 47.4094 9.2672 47.5224 9.60624C47.5224 9.71926 47.6919 9.77577 47.9179 9.83227C48.5395 9.88878 49.2176 9.88878 49.2176 9.88878C50.1217 9.88878 51.3649 10.2843 52.4385 10.5669C52.8905 10.6799 53.3426 10.8494 53.7381 10.9624L54.1902 11.0754L53.7381 7.17645L55.6594 5.1422L55.8854 4.69014Z" fill="#DA1C15"/>
<path d="M49.1046 8.30654L48.9915 8.25003C48.596 7.85448 43.4539 7.23291 39.0463 7.28941C34.6388 7.23291 29.1576 7.9675 28.8751 8.36305L28.8185 8.41955L28.7621 8.30654C28.7621 8.25003 27.5754 2.71235 27.4624 2.42982C27.4624 2.42982 27.4624 2.3168 27.5189 2.3168C27.9144 1.75173 32.9436 0.678101 38.9898 0.678101C41.6456 0.678101 44.4145 0.960636 46.7878 1.41269C48.6525 1.75173 50.0652 2.14728 50.2912 2.42982C50.3477 2.48632 50.2912 2.54283 50.2912 2.59934C50.2347 2.88187 49.1611 7.79798 49.1611 7.85448L49.1046 8.30654Z" fill="#00724C"/>
<path d="M28.2536 8.92815L27.1234 4.12506C26.2758 4.12506 23.1115 4.97267 23.1115 4.97267L24.9197 6.8374L24.5241 10.1713C24.5241 10.1713 25.5977 9.88877 26.1063 9.77576C26.6714 9.60624 27.1799 9.49322 27.6885 9.38021C28.0275 9.3237 28.3101 9.2672 28.5361 9.2672C28.5926 9.2672 28.7056 9.2672 28.7621 9.2672L28.6491 9.21069L28.2536 8.92815Z" fill="#00724C"/>
<path d="M49.6697 9.04113L50.7998 4.23804C51.6475 4.23804 54.8118 5.08564 54.8118 5.08564L53.0036 6.95037L53.3992 10.2843C53.3992 10.2843 52.3255 10.0017 51.817 9.88873C51.2519 9.71921 50.7433 9.6062 50.2348 9.49319C49.8957 9.43668 49.6132 9.38017 49.3872 9.38017C49.3307 9.38017 49.2176 9.38017 49.1611 9.38017L49.2742 9.32366L49.6697 9.04113Z" fill="#00724C"/>
<path d="M6.32886 24.976C6.27236 24.976 6.21586 24.976 6.15935 24.976C6.15935 26.2757 6.15935 27.5753 6.15935 28.9315C5.25524 28.9315 4.35113 28.9315 3.44702 28.9315C3.44702 25.4846 3.44702 21.9811 3.44702 18.5342C4.40764 18.1952 5.31175 17.8561 6.27237 17.5171C8.53265 16.726 9.94531 17.5171 10.0018 20.4554C10.0583 23.2808 8.64565 24.6935 6.32886 24.976ZM6.49838 20.0034C6.38536 20.0599 6.27236 20.0599 6.15935 20.1164C6.15935 21.0205 6.15935 21.9246 6.15935 22.8287C6.27236 22.8287 6.38538 22.7722 6.5549 22.7722C7.23299 22.6592 7.51553 21.9246 7.51553 21.077C7.45902 20.2294 7.17646 19.8339 6.49838 20.0034Z" fill="#DA1C15"/>
<path d="M20.5686 23.6199C20.5121 23.6199 20.3426 23.6199 20.3426 23.6199V28.875H17.5172V14.2962C17.5172 14.2962 19.495 13.9007 20.4556 13.7312C22.7724 13.2791 24.5806 14.5788 24.6371 18.1952C24.6371 21.7551 22.8289 23.3938 20.5686 23.6199ZM20.6251 16.8955C20.5121 16.8955 20.2861 16.952 20.2861 16.952C20.2861 16.952 20.2861 19.3818 20.2861 20.5685C21.5292 20.4555 21.8118 19.8904 21.8118 18.4212C21.8683 17.2911 21.3032 16.7825 20.6251 16.8955Z" fill="#DA1C15"/>
<path d="M68.2606 18.8168C67.8651 18.7603 67.526 18.7038 67.1305 18.5908C67.2435 17.6866 67.3565 16.7825 67.413 15.8784C67.9216 15.9914 68.3736 16.161 68.8822 16.3305C68.7127 17.1781 68.4867 17.9692 68.2606 18.8168Z" fill="#DA1C15"/>
<path fill-rule="evenodd" clip-rule="evenodd" d="M66.7348 27.5754C66.7348 27.0103 66.7348 26.5018 66.7348 25.9367V15.709H66.6783C65.8872 15.4829 65.3222 15.3699 64.4746 15.1439C64.4746 15.3134 64.4746 15.4829 64.4746 15.6524V22.0377C63.7965 19.4384 63.0054 17.2911 62.2143 14.5788C62.1578 14.5788 62.1013 14.5788 62.1013 14.5788L59.6149 14.0703V22.7158C59.5584 24.7501 59.5585 26.7278 59.502 28.8751C59.502 28.8751 59.5584 28.8751 59.6149 28.8751H62.1578V21.5292C62.8358 24.0155 63.6835 26.5018 64.3615 28.8751C64.418 28.8751 64.4181 28.8751 64.4746 28.8751H64.9266C65.5482 28.8751 66.1698 28.8751 66.7913 28.8751V27.5754H66.7348Z" fill="#DA1C15"/>
<path d="M58.5978 13.9007H58.5413C57.5807 13.7312 55.7724 13.4487 55.7724 13.4487V19.2124H53.7382V13.7312C53.7382 13.5617 53.7382 13.3922 53.7382 13.2226C53.6252 13.2226 53.5122 13.1661 53.3991 13.1661L51.1954 12.8836C51.0824 12.8836 50.9693 12.8271 50.8563 12.8271V12.9966C50.8563 15.7654 50.8563 18.3648 50.8563 20.9076V28.8751H53.7947V22.9418H55.8855V28.7621V28.8186H58.7108V13.9007H58.5978Z" fill="#DA1C15"/>
<path d="M71.99 21.4726C71.5379 21.0206 71.3119 20.625 71.3119 20.286C71.3119 19.947 71.4249 19.6079 71.877 19.6079C72.3855 19.6079 72.442 20.2295 72.442 20.625C72.442 20.7381 72.442 20.7946 72.442 20.9076H74.8718C74.8153 18.7603 74.0242 17.4041 72.103 17.0651C70.2948 16.7261 68.5996 17.5172 68.5431 19.7774C68.5431 21.1336 69.1646 22.3768 70.1818 23.3939C70.6338 23.8459 71.0859 24.298 71.5944 24.7501C72.0465 25.1456 72.2725 25.4846 72.2725 25.7672C72.2725 26.1627 72.0465 26.4453 71.651 26.4453C71.1424 26.4453 70.9163 25.9367 70.9163 25.5412C70.9163 25.3716 70.9163 25.2021 70.9163 24.9761H68.4301C68.4301 25.0891 68.4301 25.2021 68.4301 25.3716C68.4301 27.6319 69.6732 29.1011 71.5379 29.1011C73.7417 29.1011 74.9284 27.7449 74.9284 25.8802C74.9284 24.8066 74.3068 23.959 73.3462 22.9418C72.8941 22.4333 72.442 21.9812 71.99 21.4726Z" fill="#DA1C15"/>
<path d="M14.5225 14.9744C13.5619 15.2004 12.6013 15.4829 11.6407 15.709C10.9061 20.286 10.228 24.6936 9.49341 28.8751C10.3975 28.8751 11.3016 28.8751 12.2057 28.8751C12.2622 28.3665 12.3752 27.2929 12.3752 27.2929H14.014C14.014 27.2929 14.127 28.31 14.1835 28.8751C15.1441 28.8751 16.0482 28.8751 17.0088 28.8751C16.1612 24.072 15.3136 19.4384 14.5225 14.9744ZM12.6013 24.8631C12.6013 24.8631 12.9403 21.6422 13.0533 20.0035C13.2229 21.5857 13.6749 24.8631 13.6749 24.8631H12.6013Z" fill="#DA1C15"/>
<path d="M29.9489 12.601C28.9318 12.714 27.1801 12.8835 26.163 12.9966C25.3719 18.4212 24.6373 23.6199 23.9027 28.875C24.8633 28.875 25.9934 28.875 26.9541 28.875C27.0106 28.2534 27.1236 26.9538 27.1236 26.9538H29.1579C29.1579 26.9538 29.2708 28.2534 29.3839 28.875C30.3445 28.875 31.5311 28.875 32.4917 28.875C31.6441 23.3373 30.7965 17.9692 29.9489 12.601ZM27.4061 24.0154L28.0842 18.1387H28.1407L28.9318 24.0154H27.4061Z" fill="#DA1C15"/>
<path d="M45.9967 12.3185C43.793 12.262 42.0413 14.0137 42.0413 17.065C42.0413 19.4383 42.0413 21.8116 42.0413 24.1849C42.0413 27.2363 43.8495 29.101 45.9967 29.101C48.144 29.101 49.8392 27.1233 49.8392 24.1849C49.8392 21.8681 49.8957 19.6644 49.8957 17.4041C49.9522 14.3527 48.4831 12.375 45.9967 12.3185ZM46.6748 25.0325C46.6748 25.4281 46.3923 25.7106 45.9967 25.7106H45.8837C45.4882 25.7106 45.2056 25.4281 45.2056 25.0325V16.274C45.2056 15.8784 45.4882 15.5959 45.8837 15.5959H45.9967C46.3923 15.5959 46.6748 15.8784 46.6748 16.274V25.0325Z" fill="#DA1C15"/>
<path d="M38.1988 12.262V24.298V25.3716C38.1988 25.5976 38.0293 25.8237 37.8033 25.8237C37.8033 25.8237 37.8033 25.8237 37.7468 25.8237H37.6903C37.4077 25.8237 37.1817 25.5976 37.1817 25.3151V23.6199C36.3341 23.6199 35.317 23.6199 34.4694 23.6199C34.4694 24.0155 34.4694 24.9761 34.4694 25.3716C34.4694 27.4624 35.769 28.9316 37.6903 28.9316C37.8598 28.9316 38.0293 28.9316 38.1988 28.875C40.2896 28.7055 41.1372 27.3494 41.1372 24.185V12.149L38.1988 12.262Z" fill="#DA1C15"/>
<path d="M31.9833 6.49767L31.4747 2.37266L32.7179 2.20314C33.5655 2.09012 34.1871 2.42916 34.3001 3.22026C34.4131 4.01136 33.848 4.57643 33.0569 4.63293L32.7179 4.68944L32.9439 6.32814L31.9833 6.49767ZM32.8874 3.95485C33.1699 3.89835 33.396 3.67232 33.3395 3.33328C33.2829 3.05074 33.0569 2.88122 32.7744 2.93773L32.4354 2.99423L32.5484 4.01136L32.8874 3.95485Z" fill="white"/>
<path d="M35.091 6.10271L34.865 1.92119L35.7691 1.86469L35.9951 6.0462L35.091 6.10271Z" fill="white"/>
<path d="M36.9559 5.98974V5.36817L38.4251 2.54282H36.9559V1.80823H39.4987V2.3733L37.9731 5.25515H39.5552V5.98974H36.9559Z" fill="white"/>
<path d="M40.3463 5.93324V5.31166L42.0415 2.59933L40.5724 2.54282L40.6288 1.80823L43.1717 1.92124V2.48631L41.4765 5.25515L43.0586 5.31166L43.0021 6.04625L40.3463 5.93324Z" fill="white"/>
<path d="M45.6014 6.44176V5.9332L44.7538 5.82018L44.5843 6.32874L43.6802 6.21573L45.2058 2.20374L46.11 2.31675L46.5055 6.55477L45.6014 6.44176ZM45.4884 3.61641L44.9798 5.1986L45.6014 5.25511L45.4884 3.61641Z" fill="white"/>
<path d="M79.8445 19.0429C79.1664 19.0429 78.6013 18.4779 78.6013 17.7998C78.6013 17.1217 79.1099 16.5566 79.8445 16.5566C80.5791 16.5566 81.0876 17.1217 81.0876 17.7998C81.0876 18.4779 80.5226 19.0429 79.8445 19.0429ZM79.8445 16.7262C79.2229 16.7262 78.8273 17.1782 78.8273 17.7998C78.8273 18.3649 79.2794 18.8734 79.8445 18.8734C80.4661 18.8734 80.9181 18.4214 80.9181 17.7998C80.8616 17.1782 80.4661 16.7262 79.8445 16.7262ZM80.24 18.3649C80.0705 18.3649 80.014 18.3084 80.014 18.1953V18.0258C80.014 17.9128 79.9575 17.8563 79.8445 17.8563H79.6184V18.3084H79.3924V17.1782H79.8445C80.0705 17.1782 80.1835 17.2912 80.1835 17.4608V17.5173C80.1835 17.6303 80.127 17.7433 80.014 17.7433C80.127 17.7433 80.1835 17.8563 80.1835 17.9693V18.0823C80.1835 18.1388 80.1835 18.1388 80.24 18.1388V18.3084V18.3084V18.3649ZM80.014 17.5173C80.014 17.4608 79.9575 17.4042 79.901 17.4042H79.6749V17.7433H79.8445C79.9575 17.6868 80.014 17.6303 80.014 17.5173Z" fill="#00724C"/>
</svg>
