<svg width="119" height="55" viewBox="0 0 119 55" fill="none" xmlns="http://www.w3.org/2000/svg">
<g clip-path="url(#clip0)">
<path d="M114.865 12.0875C114.372 12.09 113.884 12.1901 113.431 12.3821C112.977 12.574 112.565 12.8539 112.22 13.2057C111.424 12.4833 110.387 12.0845 109.313 12.0875C108.6 12.0902 107.898 12.267 107.268 12.6028C106.639 12.9385 106.101 13.4229 105.701 14.014C105.688 14.0359 105.674 14.0567 105.658 14.076L105.419 13.7875C104.519 12.655 103.394 12.0875 102.084 12.0875C101.471 12.0757 100.862 12.1909 100.296 12.4261C99.7306 12.6612 99.2194 13.0111 98.7953 13.4537C98.3882 13.026 97.8991 12.6846 97.3574 12.45C96.8156 12.2154 96.2321 12.0923 95.6418 12.0881C95.0515 12.0838 94.4664 12.1986 93.9213 12.4254C93.3762 12.6522 92.8823 12.9865 92.4691 13.4084C92.0618 12.9941 91.5769 12.6643 91.0421 12.4376C90.5074 12.211 89.9332 12.092 89.3524 12.0875C88.7541 12.0865 88.1622 12.2112 87.6151 12.4535C87.068 12.6958 86.5778 13.0504 86.1762 13.4942C85.7619 13.0524 85.2619 12.6999 84.7067 12.458C84.1516 12.2161 83.553 12.0901 82.9476 12.0875C82.3463 12.0763 81.7496 12.1937 81.1974 12.4317C80.6451 12.6698 80.15 13.0231 79.7451 13.468C79.2979 12.9892 78.7485 12.6177 78.1378 12.381C77.5271 12.1444 76.8708 12.0487 76.218 12.1012C75.5652 12.1537 74.9327 12.3529 74.3675 12.6841C73.8024 13.0153 73.3193 13.4699 72.9543 14.014C72.9372 14.0321 72.9235 14.0531 72.9137 14.076L72.6755 13.7875C71.7724 12.655 70.643 12.0875 69.3396 12.0875C68.7396 12.0751 68.1434 12.1845 67.5868 12.4091C67.0303 12.6336 66.525 12.9687 66.1014 13.3941C65.2589 12.5672 64.1291 12.099 62.949 12.0875C62.3122 12.0889 61.6834 12.2302 61.107 12.5012C60.5306 12.7723 60.0207 13.1666 59.6132 13.6564C59.5584 13.5991 59.5059 13.5324 59.444 13.468C59.0121 13.0084 58.4862 12.6475 57.9022 12.4098C57.3182 12.1721 56.6898 12.0632 56.0599 12.0906C55.43 12.118 54.8135 12.281 54.2523 12.5685C53.6911 12.856 53.1984 13.2612 52.808 13.7565L52.7651 13.8137C52.5372 14.1055 52.3489 14.4262 52.2051 14.7674C52.086 14.6482 51.9669 14.529 51.843 14.4145C50.1512 12.9172 48.1116 12.1853 45.5906 12.1853H42.9314C40.6988 12.1853 39.069 13.2582 38.4471 15.1394C38.3569 15.3863 38.2969 15.6433 38.2684 15.9047C37.7473 14.7679 36.9114 13.8044 35.8599 13.1282C34.8084 12.4521 33.5852 12.0918 32.3353 12.0899H17.0308C17.6435 11.7564 18.2369 11.3886 18.8083 10.9884C19.7758 10.2625 20.5072 9.26646 20.9104 8.12567C21.3136 6.98488 21.3706 5.75026 21.0743 4.57711C20.794 3.41226 20.1714 2.35815 19.2867 1.55071C18.4021 0.743275 17.296 0.219533 16.111 0.0470252C15.8514 0.0098893 15.5894 -0.00764503 15.3271 -0.00542867C13.6324 0.00985119 11.9833 0.544948 10.6021 1.52765C9.85337 2.07801 9.22481 2.77549 8.75486 3.57739C8.28492 4.37929 7.9835 5.26873 7.86905 6.19125C7.80956 6.57844 7.7904 6.97077 7.81187 7.36192C7.49672 7.31048 7.17807 7.28338 6.85876 7.28085C5.47668 7.30491 4.13459 7.74895 3.0106 8.55405C0.83037 10.1062 0.189406 11.9516 0.0321436 13.2224C-0.09895 14.3088 0.0751523 15.4102 0.534907 16.403C0.428799 16.5832 0.348585 16.7774 0.296631 16.98C0.157068 17.5132 0.0858082 18.062 0.0845647 18.6132V48.4593C0.0845642 49.3194 0.253981 50.171 0.583129 50.9656C0.912276 51.7601 1.3947 52.4819 2.00281 53.0897C2.61093 53.6975 3.33281 54.1795 4.12719 54.508C4.92157 54.8364 5.77287 55.005 6.6324 55.0041H32.3353C33.6743 55.001 34.98 54.5866 36.0761 53.817C37.1721 53.0473 38.0055 51.9595 38.4637 50.7005C38.5306 50.932 38.6101 51.1597 38.702 51.3824C39.3115 52.8051 40.452 53.9335 41.8806 54.5273C42.6193 54.8434 43.4147 55.0057 44.2181 55.0041C44.9436 55.0044 45.6628 54.8694 46.3388 54.6059C47.0062 54.3502 47.6239 53.9799 48.164 53.5116L48.2879 53.3947C48.399 53.562 48.5216 53.7214 48.6548 53.8716C48.9696 54.1881 49.3437 54.4393 49.7557 54.6107C50.1744 54.7924 50.6265 54.8841 51.0829 54.8801H55.6697C56.5678 54.8815 57.4298 54.5265 58.0667 53.893C58.0895 53.8696 58.111 53.8449 58.1311 53.8191C58.3432 54.0438 58.5835 54.2402 58.8459 54.4033C59.3628 54.7101 59.9516 54.8746 60.5526 54.8801C61.1535 54.8855 61.7452 54.7317 62.2676 54.4343C63.4852 53.7857 64.2119 52.3218 64.3787 52.0047C64.3787 52.0429 65.6654 54.1195 66.7329 54.5606C66.7757 54.5749 66.8091 54.5916 66.8425 54.6059C67.1012 54.6927 67.3677 54.7542 67.6383 54.7895C67.9183 54.8216 68.2 54.8359 68.4818 54.8324H70.3022C70.475 54.8337 70.6476 54.8249 70.8193 54.8062C71.0303 54.7982 71.2398 54.7662 71.4436 54.7108C71.6773 54.6526 71.9035 54.5678 72.1179 54.4581C72.3289 54.3466 72.5271 54.2123 72.7088 54.0576C73.0895 53.7378 73.3905 53.3337 73.5881 52.8773C73.6605 52.725 73.7157 52.5651 73.7525 52.4005C74.3577 53.8096 75.7516 54.9564 77.8508 54.9564H81.1152C81.7351 54.9508 82.338 54.7534 82.8414 54.3915C83.3447 54.0295 83.7239 53.5206 83.9269 52.9346C84.0791 53.2514 84.2774 53.5439 84.5154 53.8024C84.8319 54.1439 85.2163 54.4154 85.6439 54.5994C86.0715 54.7833 86.5328 54.8757 86.9983 54.8706H93.1267C93.5783 54.8729 94.0254 54.7811 94.4396 54.6012C94.8278 54.4414 95.182 54.2092 95.4833 53.9169V53.9169C96.1194 54.5299 96.9686 54.8718 97.8518 54.8706H102.45C103.348 54.8707 104.21 54.5159 104.848 53.8835C104.932 53.7987 105.012 53.7088 105.086 53.6141C105.268 53.7897 105.465 53.9492 105.674 54.0909C106.135 54.3902 106.636 54.62 107.164 54.7728C107.707 54.9213 108.268 54.9951 108.832 54.9922C109.48 54.9994 110.125 54.8946 110.738 54.6822C111.364 54.4578 111.933 54.0989 112.406 53.6308C112.414 53.6194 112.425 53.6096 112.437 53.6022C112.853 53.1698 113.181 52.6604 113.402 52.1025C113.62 51.5447 113.733 50.9514 113.735 50.3524V46.9572C113.735 46.3232 113.556 45.702 113.221 45.1643C112.982 44.7613 112.36 44.3274 111.986 44.0413C112.45 43.7596 112.879 43.4234 113.263 43.0399C113.706 42.5895 114.079 42.0761 114.371 41.5164C114.871 40.5452 115.133 39.4688 115.134 38.3763C115.146 36.9335 114.675 35.5282 113.795 34.3851C114.335 33.6665 114.625 32.7904 114.619 31.8911C114.62 31.4252 114.545 30.9622 114.398 30.5202C114.076 29.6205 113.495 28.8358 112.73 28.2647C112.754 28.2443 112.775 28.2201 112.792 28.1932C113.561 27.1775 113.716 26.2047 113.716 24.8743V22.378C113.835 22.4137 113.954 22.4352 114.04 22.4566C114.259 22.4989 114.482 22.5212 114.705 22.5234C115.477 22.5234 117.386 22.2254 118.46 19.4239C118.797 18.5311 118.981 17.5881 119.006 16.6343C119.001 14.1237 117.145 12.0875 114.865 12.0875Z" fill="white"/>
<path d="M115.09 28.0293C114.322 28.0306 113.587 28.3357 113.043 28.878C112.5 29.4204 112.193 30.1559 112.19 30.9238C112.189 31.0948 112.203 31.2656 112.233 31.434C112.349 32.0912 112.688 32.6883 113.192 33.1245C113.697 33.5607 114.337 33.8093 115.004 33.8284C115.67 33.8474 116.323 33.6357 116.852 33.2291C117.381 32.8224 117.753 32.2457 117.906 31.5961C117.939 31.4887 117.957 31.3771 117.959 31.2647C117.975 31.1518 117.983 31.0379 117.983 30.9238C117.98 30.1569 117.674 29.4221 117.133 28.8799C116.591 28.3376 115.856 28.0318 115.09 28.0293V28.0293Z" fill="white"/>
<path fill-rule="evenodd" clip-rule="evenodd" d="M115.362 31.0048C115.705 31.0048 115.972 30.8546 115.972 30.4875C115.974 30.405 115.954 30.3235 115.915 30.2508C115.877 30.1781 115.82 30.1167 115.75 30.0726C115.608 29.9982 115.447 29.966 115.288 29.9796H114.458V31.887H114.697V31.0072H115.123L115.261 31.229L115.669 31.887H115.95L115.509 31.2266L115.362 31.0048ZM115.045 30.8332H114.687V30.1489H115.23C115.469 30.1489 115.728 30.1846 115.728 30.4779C115.728 30.8689 115.309 30.8332 115.045 30.8332V30.8332Z" fill="#DF1683"/>
<path fill-rule="evenodd" clip-rule="evenodd" d="M116.763 31.2266C116.78 31.129 116.789 31.0301 116.789 30.9309C116.772 30.4895 116.585 30.0717 116.267 29.7653C115.95 29.4588 115.525 29.2876 115.084 29.2876C114.642 29.2876 114.218 29.4588 113.9 29.7653C113.582 30.0717 113.396 30.4895 113.379 30.9309C113.378 31.0303 113.388 31.1295 113.41 31.2266C113.478 31.6217 113.684 31.98 113.991 32.2383C114.298 32.4965 114.685 32.6381 115.086 32.6381C115.487 32.6381 115.875 32.4965 116.182 32.2383C116.488 31.98 116.694 31.6217 116.763 31.2266H116.553C116.486 31.5659 116.303 31.8714 116.035 32.0909C115.768 32.3104 115.433 32.4304 115.087 32.4304C114.742 32.4304 114.407 32.3104 114.139 32.0909C113.872 31.8714 113.689 31.5659 113.622 31.2266V31.2266C113.606 31.1265 113.599 31.0251 113.603 30.9238C113.618 30.5367 113.783 30.1706 114.062 29.9022C114.341 29.6338 114.713 29.4839 115.101 29.4839C115.488 29.4839 115.86 29.6338 116.139 29.9022C116.418 30.1706 116.583 30.5367 116.598 30.9238C116.599 31.0234 116.587 31.1228 116.562 31.2194L116.763 31.2266Z" fill="#DF1683"/>
<path d="M13.11 14.6393C13.0609 14.8038 13.078 14.9809 13.1576 15.1329C13.1954 15.2091 13.2489 15.2763 13.3146 15.3302C13.3803 15.384 13.4568 15.4232 13.5389 15.4452C13.62 15.4721 13.7057 15.4826 13.791 15.4758C13.8762 15.4691 13.9593 15.4454 14.0352 15.406C14.1111 15.3667 14.1784 15.3126 14.2332 15.2468C14.2879 15.1811 14.3289 15.1051 14.3538 15.0232C15.1043 12.577 13.8057 11.0558 12.7621 9.83268C11.7732 8.66678 11.1752 7.90144 11.3467 6.695C11.3983 6.23636 11.5443 5.7934 11.7756 5.3941C12.0069 4.99479 12.3185 4.64783 12.6906 4.37512C13.5259 3.78841 14.5301 3.49116 15.5499 3.52871C16.0526 3.59025 16.5242 3.80485 16.9009 4.14345C17.2777 4.48205 17.5414 4.92831 17.6563 5.42181C17.734 5.74159 17.7525 6.07289 17.7111 6.39935C17.6707 6.73731 17.564 7.06396 17.3971 7.36058C17.2303 7.65721 17.0066 7.91797 16.7389 8.12794C16.7389 8.12794 16.7389 8.12794 16.7222 8.13986C16.0789 8.47604 15.5571 8.47604 15.2068 8.13986C15.0643 8.00855 14.9651 7.8369 14.9225 7.64777C14.88 7.45864 14.896 7.26102 14.9685 7.08125C15.0948 6.84283 15.4212 6.74269 15.8835 6.8309C16.0507 6.85277 16.2201 6.81293 16.3601 6.71884C16.4294 6.66985 16.4884 6.6075 16.5334 6.53545C16.5784 6.46339 16.6086 6.38308 16.6222 6.29922C16.6379 6.21475 16.6366 6.12799 16.6185 6.04401C16.6003 5.96004 16.5656 5.88054 16.5163 5.81016C16.467 5.73978 16.4042 5.67994 16.3316 5.63413C16.2589 5.58833 16.1779 5.55749 16.0932 5.54341C15.0543 5.36459 14.187 5.71269 13.7986 6.49711C13.6011 6.92271 13.5408 7.39928 13.6262 7.8607C13.7116 8.32212 13.9384 8.7455 14.2751 9.07211C15.0519 9.82791 16.2076 9.90182 17.3727 9.27L17.4466 9.21278C18.0615 8.74456 18.5251 8.1055 18.7793 7.37535C19.0335 6.6452 19.0673 5.85629 18.8763 5.10709C18.6945 4.37028 18.2972 3.70446 17.7352 3.1948C17.1732 2.68513 16.4721 2.35478 15.7215 2.24598C14.3531 2.14753 12.9934 2.53132 11.8781 3.33082C11.3671 3.70772 10.9385 4.1851 10.6185 4.73366C10.2985 5.28223 10.0939 5.89043 10.0171 6.52095C9.75742 8.36159 10.8035 9.59426 11.7304 10.6839C12.7788 11.8498 13.6509 12.875 13.11 14.6393Z" fill="#663C20"/>
<path d="M7.97035 16.8376L7.99656 16.8185C9.06881 16.0151 9.03545 14.3604 8.34207 13.3804C7.64868 12.4005 6.53355 12.2575 5.48275 12.9632C5.33961 13.0613 5.24086 13.2119 5.20786 13.3824C5.17486 13.5529 5.21027 13.7295 5.30642 13.874C5.35183 13.9463 5.41205 14.0081 5.48311 14.0554C5.55417 14.1026 5.63445 14.1343 5.71864 14.1482C5.80058 14.1644 5.88493 14.164 5.96675 14.1473C6.04856 14.1305 6.12622 14.0976 6.19519 14.0504C6.80995 13.6379 7.10541 13.9026 7.26744 14.141C7.47295 14.4426 7.56187 14.8087 7.51763 15.171C7.51067 15.2843 7.4814 15.395 7.43151 15.4969C7.38163 15.5988 7.3121 15.6898 7.22693 15.7647C5.79727 16.685 4.54632 16.1772 3.92919 15.2879C3.22627 14.2722 3.30252 12.6866 5.04194 11.4444C6.76706 10.2523 8.01563 10.9986 8.61608 11.5446C9.73836 12.565 10.1649 14.3461 9.55489 15.4404C9.48878 15.5531 9.45807 15.683 9.46674 15.8133C9.4754 15.9436 9.52306 16.0684 9.6035 16.1712C9.68394 16.2741 9.79345 16.3504 9.91779 16.3901C10.0421 16.4299 10.1755 16.4313 10.3007 16.3941C10.3838 16.3719 10.4615 16.3326 10.5287 16.2788C10.596 16.2251 10.6514 16.158 10.6915 16.0818C11.6088 14.451 11.0751 12.0286 9.50009 10.598C8.02278 9.2533 6.07844 9.16747 4.30328 10.3954C2.99276 11.3371 2.37563 12.4506 2.24696 13.5283C2.14194 14.4132 2.35937 15.3062 2.85932 16.0437C3.84579 17.4456 5.91403 18.1919 7.97035 16.8376Z" fill="#663C20"/>
<path d="M69.0954 45.0148C69.2171 45.0217 69.3378 44.9882 69.4385 44.9194C69.5631 44.8169 69.666 44.6904 69.7411 44.5475C69.8432 44.3979 69.9295 44.2381 69.9985 44.0706C70.044 43.9784 70.0699 43.8777 70.0747 43.775C70.0757 43.6965 70.0595 43.6187 70.0274 43.5471C69.9953 43.4754 69.9481 43.4116 69.8889 43.3601C69.8301 43.3036 69.7606 43.2595 69.6845 43.2304C69.6083 43.2013 69.5271 43.1879 69.4457 43.1908C69.3267 43.1886 69.2098 43.2218 69.1097 43.2862C68.9929 43.3874 68.8938 43.5075 68.8166 43.6415C68.7141 43.7933 68.6233 43.9527 68.545 44.1183C68.4913 44.2054 68.4601 44.3046 68.4544 44.4068C68.4538 44.4869 68.4703 44.5662 68.5028 44.6393C68.5352 44.7125 68.5829 44.7779 68.6427 44.8312C68.7647 44.9479 68.9266 45.0135 69.0954 45.0148V45.0148Z" fill="#663C20"/>
<path d="M47.4623 50.5152C47.4623 50.9444 47.2049 51.3831 46.6926 51.8385C46.3467 52.1359 45.9516 52.3707 45.5251 52.5323C45.106 52.7001 44.6587 52.7858 44.2074 52.7851C43.703 52.7863 43.2037 52.6849 42.7396 52.487C42.2958 52.2993 41.8915 52.0291 41.5483 51.6907C41.2008 51.3529 40.9266 50.9471 40.7429 50.4986C40.5465 50.0391 40.4476 49.5438 40.4522 49.0442C40.4487 48.5412 40.5485 48.043 40.7453 47.5802C41.1328 46.6822 41.8514 45.9683 42.7515 45.587C43.2167 45.3915 43.7172 45.2941 44.2217 45.3009C44.65 45.3004 45.0753 45.3721 45.4798 45.5131C45.889 45.66 46.2696 45.877 46.6045 46.1544C47.1779 46.6138 47.4654 47.0827 47.467 47.5611C47.4678 47.7193 47.4361 47.8759 47.3741 48.0213C47.318 48.1581 47.2373 48.2834 47.1358 48.3909C47.0303 48.5006 46.9039 48.5881 46.7641 48.6484C46.6188 48.7071 46.4634 48.737 46.3066 48.7366C46.1622 48.7346 46.0192 48.7063 45.8849 48.6531C45.7662 48.6094 45.6576 48.5421 45.5656 48.4552L45.2177 48.0905C45.0928 47.9474 44.9338 47.8383 44.7555 47.7733C44.5817 47.6984 44.3942 47.6611 44.205 47.6637C44.0173 47.6599 43.8311 47.6973 43.6594 47.7733C43.492 47.8411 43.3379 47.938 43.2043 48.0595C43.0791 48.1866 42.9803 48.3374 42.9136 48.5029C42.8419 48.6752 42.8047 48.8599 42.804 49.0465C42.8046 49.2355 42.8419 49.4225 42.9136 49.5973C42.9869 49.7572 43.085 49.9044 43.2043 50.0336C43.3347 50.1622 43.4883 50.265 43.657 50.3364C43.8264 50.4061 44.0076 50.4425 44.1907 50.4437C44.3886 50.4393 44.5836 50.3948 44.7638 50.3129C44.944 50.2309 45.1057 50.1132 45.2392 49.9669L45.4774 49.707C45.586 49.6069 45.7109 49.5262 45.8468 49.4686C45.9865 49.4027 46.1391 49.3685 46.2935 49.3685C46.448 49.3685 46.6006 49.4027 46.7403 49.4686C46.8764 49.5345 47.0024 49.6196 47.1144 49.7213C47.2159 49.8317 47.301 49.9561 47.367 50.0908C47.4277 50.2242 47.4602 50.3687 47.4623 50.5152V50.5152Z" fill="#663C20"/>
<path d="M51.7799 52.4298C51.5729 52.5813 51.3213 52.6594 51.065 52.6515C50.9067 52.6522 50.7497 52.6223 50.6028 52.5633C50.4643 52.5017 50.3384 52.4152 50.2311 52.3082C50.1292 52.2001 50.0484 52.074 49.9928 51.9362C49.9293 51.792 49.8969 51.6361 49.8975 51.4785C49.9021 51.2624 49.9541 51.0499 50.05 50.8562L52.2755 46.1282C52.3677 45.913 52.5231 45.7309 52.721 45.606C52.9087 45.479 53.1307 45.4124 53.3572 45.4153C53.5884 45.4117 53.8151 45.4782 54.0077 45.606C54.2062 45.7342 54.3621 45.9184 54.4557 46.1353L56.7003 50.9206C56.7893 51.0939 56.8359 51.2859 56.8361 51.4809C56.8391 51.6394 56.8065 51.7967 56.7408 51.941C56.6805 52.0794 56.593 52.2043 56.4834 52.3082C56.3762 52.4193 56.2472 52.5071 56.1045 52.5662C55.9619 52.6253 55.8086 52.6543 55.6542 52.6515C55.4092 52.6625 55.1686 52.5836 54.9775 52.4298C54.7456 52.2233 54.5667 51.9641 54.4557 51.674H52.2755C52.1677 51.9592 51.9985 52.2173 51.7799 52.4298ZM53.7266 49.9668L53.362 49.1061L52.9998 49.9668H53.7266Z" fill="#663C20"/>
<path d="M61.7684 51.0016C61.7684 51.1637 61.7684 51.314 61.7684 51.4165C61.7684 51.519 61.7517 51.6311 61.7422 51.7074C61.7292 51.7786 61.7085 51.8482 61.6802 51.9148C61.6515 51.9818 61.6189 52.0471 61.5825 52.1103C61.4789 52.2771 61.3342 52.4144 61.1623 52.5092C60.9904 52.6039 60.7971 52.653 60.6008 52.6515C60.3878 52.6534 60.1784 52.5965 59.9956 52.487C59.8146 52.3837 59.6679 52.2295 59.5738 52.0435C59.5417 51.9864 59.5146 51.9265 59.4928 51.8647C59.4731 51.7975 59.458 51.729 59.4475 51.6597C59.4359 51.5696 59.4303 51.4787 59.4309 51.3879C59.4309 51.2877 59.4309 51.1494 59.4309 50.9849V46.8673C59.4197 46.6156 59.4594 46.3642 59.5476 46.1282C59.6306 45.9406 59.7685 45.7827 59.9432 45.6752C60.0153 45.6223 60.0959 45.582 60.1814 45.556C60.284 45.5253 60.3894 45.5045 60.496 45.494C60.546 45.494 60.6223 45.4773 60.7342 45.4725H62.9979C63.117 45.4725 63.2219 45.494 63.3076 45.5012C63.3934 45.5083 63.4649 45.5393 63.5268 45.556C63.5893 45.5821 63.6491 45.614 63.7056 45.6514C63.8632 45.7403 63.9927 45.8716 64.0796 46.0304C64.1689 46.1874 64.2157 46.3649 64.2155 46.5454C64.2165 46.7086 64.184 46.8703 64.1201 47.0204C64.0561 47.1705 63.9621 47.3058 63.8438 47.4181C63.7358 47.5097 63.6101 47.5779 63.4744 47.6184C63.305 47.6575 63.1312 47.6752 62.9574 47.6708H61.766V48.1644H62.4808C62.6345 48.1615 62.7883 48.1702 62.9407 48.1906C63.045 48.209 63.1446 48.2479 63.2338 48.305C63.3553 48.3807 63.4556 48.486 63.5252 48.6112C63.5948 48.7363 63.6315 48.8771 63.6317 49.0203C63.639 49.1406 63.619 49.261 63.5732 49.3725C63.5274 49.484 63.457 49.5837 63.3672 49.6641C63.1451 49.8269 62.8721 49.9048 62.5976 49.8834H61.7588L61.7684 51.0016Z" fill="#663C20"/>
<path d="M70.2939 50.3936C70.4918 50.3894 70.6894 50.4094 70.8824 50.4532C71.0252 50.4975 71.1573 50.5706 71.2708 50.6678C71.3942 50.7683 71.493 50.8958 71.5595 51.0405C71.626 51.1851 71.6585 51.3431 71.6545 51.5023C71.6565 51.6664 71.6232 51.8291 71.5568 51.9792C71.494 52.1291 71.3959 52.2617 71.2708 52.3654C71.2145 52.4098 71.1547 52.4496 71.0921 52.4846C71.0298 52.5174 70.9643 52.5437 70.8967 52.5633C70.8276 52.5633 70.7442 52.5919 70.6585 52.5967C70.5727 52.6015 70.444 52.5967 70.3082 52.5967H68.4878C68.2137 52.5967 68.0231 52.5967 67.9088 52.5848C67.7994 52.5655 67.6912 52.5401 67.5847 52.5085C67.4078 52.4371 67.2529 52.3205 67.1353 52.1702C67.0178 52.02 66.9419 51.8414 66.9151 51.6525C66.9151 51.6191 66.9008 51.5786 66.8937 51.55C66.8865 51.5214 66.8937 51.4809 66.8794 51.4189C66.8651 51.3569 66.8794 51.3163 66.8794 51.24V47.0724C66.8794 46.9293 66.8794 46.8006 66.8794 46.71C66.8794 46.6194 66.8794 46.5383 66.8937 46.4858C66.9016 46.4312 66.9127 46.377 66.9271 46.3237C66.9413 46.2832 66.958 46.2283 66.9819 46.1735C67.034 46.0403 67.1154 45.9205 67.2201 45.823C67.3178 45.725 67.4314 45.6444 67.5561 45.5846C67.6121 45.5609 67.6694 45.5402 67.7277 45.5226C67.7857 45.509 67.8446 45.4995 67.904 45.494C67.9683 45.494 68.0541 45.4773 68.1589 45.4725H70.3844C70.4797 45.4725 70.5655 45.4725 70.6108 45.4725C70.6599 45.4858 70.7102 45.4938 70.7609 45.4964C70.7983 45.5069 70.8366 45.5141 70.8753 45.5178C71.1084 45.5705 71.3167 45.7008 71.4662 45.8874C71.6138 46.0727 71.6922 46.3038 71.6878 46.5407C71.6885 46.7052 71.6536 46.8679 71.5854 47.0175C71.5202 47.1668 71.4225 47.2996 71.2994 47.4062C71.1946 47.4987 71.0699 47.5656 70.9349 47.6017C70.7598 47.6461 70.5792 47.6653 70.3987 47.6589H69.2121V48.1524H70.1438C70.3977 48.1397 70.6468 48.2251 70.8395 48.3909C70.9225 48.4693 70.988 48.5645 71.0315 48.6701C71.075 48.7758 71.0957 48.8894 71.0921 49.0036C71.0963 49.1315 71.0707 49.2586 71.0174 49.3749C70.964 49.4911 70.8844 49.5934 70.7847 49.6736C70.6985 49.7471 70.5953 49.7979 70.4845 49.8214C70.3457 49.8497 70.2044 49.8632 70.0628 49.8619H69.2121V50.3889L70.2939 50.3936Z" fill="#663C20"/>
<path d="M100.002 43.2958C99.8879 43.3956 99.7933 43.5161 99.7235 43.651C99.6162 43.802 99.5213 43.9615 99.4399 44.1279C99.3917 44.217 99.3624 44.3153 99.3541 44.4163C99.3537 44.4962 99.37 44.5752 99.402 44.6483C99.434 44.7214 99.481 44.787 99.54 44.8407C99.6662 44.9539 99.8304 45.0153 99.9999 45.0124C100.118 45.0189 100.235 44.9853 100.331 44.917C100.46 44.8181 100.564 44.6908 100.636 44.5451C100.739 44.3955 100.826 44.2357 100.896 44.0682C100.942 43.9762 100.97 43.8756 100.977 43.7726C100.977 43.6942 100.961 43.6166 100.929 43.545C100.897 43.4734 100.85 43.4096 100.791 43.3577C100.732 43.3014 100.662 43.2574 100.585 43.2283C100.509 43.1993 100.427 43.1857 100.345 43.1885C100.223 43.1902 100.104 43.2275 100.002 43.2958V43.2958Z" fill="#663C20"/>
<path d="M91.2051 46.0447C91.304 45.8589 91.4503 45.7026 91.6292 45.5917C91.8126 45.4762 92.0249 45.415 92.2416 45.4153C92.3918 45.416 92.5406 45.4451 92.68 45.5011C92.8208 45.552 92.9486 45.6334 93.0541 45.7395C93.1556 45.8277 93.2368 45.9366 93.2924 46.059C93.3526 46.2078 93.3989 46.3619 93.4306 46.5192L94.2336 51.1041C94.2526 51.1876 94.2598 51.2615 94.2717 51.3282C94.2752 51.387 94.2752 51.4459 94.2717 51.5047C94.2749 51.661 94.2449 51.8163 94.1835 51.9601C94.1285 52.0931 94.0475 52.2139 93.9453 52.3153C93.8322 52.4106 93.7073 52.4907 93.5736 52.5537C93.4321 52.6115 93.2808 52.6414 93.128 52.642C92.8509 52.6504 92.5796 52.5618 92.3607 52.3916C92.1476 52.2379 92.0031 52.0068 91.958 51.7479L91.6983 50.4079L91.2289 51.6668C90.9906 52.3177 90.5975 52.642 90.0209 52.642C89.7653 52.6442 89.5155 52.5667 89.306 52.4202C89.0868 52.2185 88.9227 51.9641 88.8295 51.6811L88.3672 50.4079L88.179 51.538C88.1409 51.8456 87.9988 52.1308 87.7763 52.3463C87.6735 52.4441 87.5523 52.5206 87.4198 52.5714C87.2873 52.6221 87.1461 52.6461 87.0043 52.642C86.8435 52.6478 86.6835 52.6183 86.5353 52.5557C86.3871 52.4931 86.2544 52.3989 86.1465 52.2796C85.9199 52.0291 85.8017 51.6991 85.8177 51.3616C85.8177 51.3068 85.8177 51.2639 85.8177 51.2209C85.8229 51.1713 85.8308 51.1219 85.8415 51.0731L86.6468 46.512C86.6873 46.2061 86.8233 45.9208 87.0352 45.6966C87.2444 45.5019 87.5217 45.3974 87.8073 45.4057C88.0528 45.4108 88.2921 45.4843 88.4983 45.6179C88.7109 45.7607 88.8766 45.9631 88.9748 46.1997L90.0137 48.5673L91.2051 46.0447Z" fill="#663C20"/>
<path d="M103.493 50.9205L101.253 46.1353C101.158 45.9198 101.004 45.7361 100.808 45.606C100.613 45.4782 100.385 45.4117 100.152 45.4153C99.923 45.4165 99.699 45.4849 99.5081 45.612C99.3171 45.7391 99.1675 45.9194 99.0777 46.1306L96.8475 50.8585C96.7516 51.0523 96.6996 51.2647 96.695 51.4808C96.694 51.6378 96.7239 51.7933 96.7831 51.9386C96.8439 52.0764 96.9286 52.2023 97.0333 52.3106C97.1385 52.418 97.263 52.5046 97.4003 52.5657C97.5464 52.6246 97.7026 52.6546 97.8601 52.6539C98.1164 52.661 98.3677 52.583 98.575 52.4322C98.7922 52.2153 98.9604 51.9543 99.0682 51.6668H101.244C101.355 51.9555 101.532 52.2143 101.761 52.4226C101.953 52.577 102.196 52.6558 102.442 52.6444C102.597 52.6447 102.751 52.6148 102.895 52.5561C103.035 52.494 103.163 52.4076 103.274 52.301C103.38 52.1945 103.466 52.0702 103.529 51.9338C103.591 51.7885 103.622 51.6317 103.619 51.4737C103.621 51.282 103.578 51.0925 103.493 50.9205V50.9205ZM99.7902 49.9668L100.152 49.1061L100.517 49.9668H99.7902Z" fill="#663C20"/>
<path d="M108.838 52.785C108.481 52.7833 108.126 52.7344 107.782 52.6396C107.479 52.5606 107.192 52.4316 106.931 52.2581C106.7 52.1111 106.504 51.9139 106.359 51.6811C106.223 51.4678 106.154 51.2189 106.159 50.9659C106.159 50.8233 106.185 50.6819 106.236 50.5486C106.295 50.4227 106.375 50.3081 106.474 50.2101C106.574 50.11 106.693 50.0309 106.824 49.9773C106.955 49.9237 107.095 49.8966 107.236 49.8977C107.376 49.8971 107.515 49.9255 107.644 49.9812C107.801 50.0385 107.945 50.126 108.068 50.2387C108.197 50.3388 108.306 50.4151 108.378 50.4771C108.449 50.5391 108.518 50.5677 108.568 50.6035C108.609 50.6306 108.654 50.6492 108.702 50.6583C108.738 50.6689 108.776 50.6753 108.814 50.6774C108.855 50.678 108.895 50.6706 108.933 50.6555C108.971 50.6403 109.006 50.6178 109.035 50.5892C109.092 50.5232 109.122 50.4379 109.119 50.3507C109.116 50.2888 109.098 50.2285 109.066 50.1756C109.034 50.1226 108.989 50.0787 108.935 50.0479C108.919 50.0449 108.902 50.0393 108.888 50.0312C108.864 50.0149 108.839 50.0005 108.814 49.9883C108.771 49.974 108.735 49.9573 108.68 49.9335C108.625 49.9096 108.561 49.8834 108.466 49.8476C108.371 49.8119 108.27 49.7761 108.175 49.7451L107.887 49.645C106.857 49.2858 106.342 48.6094 106.34 47.616C106.336 47.2882 106.401 46.9633 106.531 46.6623C106.655 46.3795 106.836 46.1255 107.062 45.916C107.308 45.7055 107.591 45.5436 107.896 45.4392C108.235 45.3206 108.593 45.2641 108.952 45.2723C109.254 45.2702 109.554 45.3087 109.845 45.3867C110.104 45.4607 110.35 45.5715 110.577 45.7157C110.766 45.8481 110.928 46.0157 111.054 46.2093C111.167 46.3963 111.227 46.6106 111.227 46.8292C111.242 47.0842 111.157 47.3349 110.989 47.5278C110.903 47.6174 110.799 47.6879 110.685 47.7348C110.57 47.7816 110.446 47.8037 110.322 47.7996C110.163 47.8 110.006 47.7692 109.86 47.709C109.682 47.6194 109.512 47.515 109.352 47.3966C109.264 47.3187 109.167 47.2507 109.064 47.194C109.003 47.1585 108.934 47.1396 108.864 47.1391C108.79 47.137 108.718 47.1635 108.664 47.213C108.611 47.2673 108.581 47.3399 108.58 47.4157C108.579 47.4676 108.593 47.5188 108.619 47.5635C108.646 47.6081 108.684 47.6445 108.73 47.6684C108.907 47.7698 109.095 47.8499 109.29 47.9069C109.587 47.9947 109.876 48.1063 110.155 48.2407C110.387 48.3483 110.603 48.4879 110.796 48.6555C111.029 48.8471 111.211 49.0927 111.328 49.3708C111.453 49.673 111.517 49.9972 111.516 50.3245C111.519 50.6421 111.46 50.9572 111.342 51.252C111.233 51.5443 111.064 51.8107 110.846 52.034C110.607 52.2712 110.318 52.4528 110 52.5657C109.63 52.7113 109.235 52.7857 108.838 52.785V52.785Z" fill="#663C20"/>
<path d="M81.2117 49.0203C81.1076 49.0281 81.0067 49.0597 80.9166 49.1126C80.8266 49.1655 80.7499 49.2383 80.6923 49.3255C80.5589 49.5138 80.435 49.8023 80.3039 50.0407L79.3055 48.8748C80.0204 48.5196 80.5517 47.8615 80.5517 47.0819C80.5517 46.3022 80.0632 45.339 78.4835 45.339C77.416 45.339 76.4962 45.9637 76.4962 47.1153C76.4962 47.7185 76.8203 48.1333 77.1753 48.5458C76.3032 48.9631 75.617 49.664 75.617 50.737C75.617 51.6907 76.2866 52.7207 77.8473 52.7207C78.2714 52.7398 78.6949 52.6726 79.0922 52.523C79.4895 52.3734 79.8523 52.1446 80.1586 51.8504L80.6232 52.3773C80.6745 52.4618 80.746 52.5322 80.8313 52.5821C80.9166 52.6321 81.0129 52.66 81.1117 52.6634C81.2025 52.6716 81.2941 52.6616 81.3811 52.634C81.4681 52.6065 81.5487 52.5619 81.6183 52.5029C81.6879 52.4439 81.7451 52.3716 81.7866 52.2903C81.8281 52.209 81.853 52.1202 81.8599 52.0292C81.8599 51.8858 81.8102 51.7467 81.7193 51.6358L81.1188 50.9205C81.4858 50.5748 81.8599 49.9263 81.8599 49.583C81.8425 49.4247 81.7662 49.2789 81.646 49.1745C81.5258 49.0702 81.3707 49.0151 81.2117 49.0203V49.0203ZM78.543 46.3666C78.6357 46.3595 78.7289 46.3709 78.8171 46.4003C78.9053 46.4297 78.9867 46.4764 79.0566 46.5377C79.1265 46.599 79.1835 46.6737 79.2242 46.7573C79.2649 46.8409 79.2885 46.9318 79.2936 47.0247C79.2936 47.585 78.8171 47.8615 78.4763 48.0666C78.1094 47.7542 77.8139 47.5063 77.8139 46.9984C77.8187 46.9085 77.8415 46.8204 77.8811 46.7394C77.9207 46.6585 77.9761 46.5864 78.0442 46.5274C78.1123 46.4684 78.1915 46.4238 78.2773 46.3961C78.363 46.3685 78.4534 46.3585 78.543 46.3666V46.3666ZM78.045 51.612C77.9157 51.6199 77.7862 51.6004 77.6649 51.5546C77.5437 51.5088 77.4335 51.4379 77.3417 51.3464C77.2499 51.255 77.1784 51.1451 77.1321 51.024C77.0857 50.9029 77.0656 50.7734 77.0729 50.644C77.0729 50.129 77.4827 49.7713 78.0617 49.4518L79.3651 50.9968C79.0218 51.3642 78.5473 51.581 78.045 51.6001V51.612Z" fill="#DF1683"/>
<path fill-rule="evenodd" clip-rule="evenodd" d="M111.592 35.2989C110.753 34.6714 109.805 34.2035 108.797 33.9184C108.467 33.826 108.147 33.6989 107.844 33.5393V33.5393C107.731 33.4958 107.633 33.419 107.565 33.3189C107.496 33.2188 107.46 33.1003 107.46 32.979C107.464 32.8328 107.523 32.6934 107.626 32.5892C107.728 32.4851 107.867 32.4241 108.013 32.4187C108.266 32.4187 108.49 32.5379 108.952 32.8956C109.28 33.1718 109.654 33.3874 110.058 33.5322V33.5322C110.272 33.6082 110.498 33.6454 110.725 33.6418C110.928 33.642 111.13 33.6048 111.32 33.5322V33.5322C111.65 33.4061 111.931 33.1787 112.123 32.8826C112.315 32.5866 112.409 32.2372 112.39 31.8846C112.387 31.6587 112.35 31.4346 112.281 31.2194C111.852 29.9582 110.222 29.0378 108.194 29.0378C106.228 29.0378 104.68 29.8723 103.92 31.2194C103.564 31.8643 103.383 32.5907 103.393 33.3271C103.393 33.3963 103.393 33.4726 103.393 33.5322C103.462 35.2345 104.403 36.3933 106.224 37.0418C106.583 37.1825 106.938 37.2969 107.298 37.4137C107.604 37.5056 107.897 37.6337 108.173 37.7952C108.28 37.8507 108.369 37.935 108.431 38.0386C108.493 38.1422 108.525 38.261 108.523 38.3817C108.529 38.4619 108.518 38.5423 108.49 38.6178C108.463 38.6933 108.42 38.7622 108.364 38.82C108.308 38.8778 108.241 38.9232 108.167 38.9533C108.092 38.9833 108.012 38.9974 107.932 38.9945C107.599 38.9945 107.472 38.9063 106.526 38.1767C106.118 37.7857 105.578 37.5627 105.013 37.552C104.758 37.5488 104.504 37.5967 104.267 37.6929C104.03 37.7891 103.815 37.9317 103.634 38.1122C103.453 38.2928 103.309 38.5077 103.212 38.7443C103.115 38.981 103.067 39.2346 103.069 39.4904C103.07 39.8324 103.143 40.1703 103.283 40.4823V40.4823C103.891 41.8294 105.718 42.7902 107.999 42.7902C109.607 42.7902 110.787 42.3658 111.659 41.4813C111.945 41.1855 112.186 40.8489 112.374 40.4823V40.4823C112.706 39.826 112.879 39.1007 112.879 38.365C112.888 37.1372 112.393 35.9593 111.592 35.2989Z" fill="#DF1683"/>
<path fill-rule="evenodd" clip-rule="evenodd" d="M62.9502 14.3079C62.6287 14.3141 62.3124 14.3912 62.0241 14.5338C61.7358 14.6764 61.4825 14.8809 61.2823 15.1328C60.8915 15.6097 60.8057 15.9077 60.8057 16.8685V22.1139C60.8057 23.0175 60.3721 23.5707 59.6144 23.5707C58.8566 23.5707 58.423 22.9961 58.423 22.0543V16.8685C58.423 15.9387 58.2657 15.438 57.8321 15.0017C57.6172 14.7707 57.3546 14.5893 57.0627 14.4699C56.7708 14.3505 56.4564 14.2961 56.1413 14.3104C55.8263 14.3247 55.5181 14.4073 55.2381 14.5526C54.9582 14.6979 54.7132 14.9024 54.52 15.1519C54.1459 15.655 54.0673 15.9649 54.0673 17.2095V21.8421C54.0673 23.5778 54.3246 24.5029 55.1324 25.614C55.6177 26.2914 56.2509 26.8491 56.9839 27.2449C57.717 27.6407 58.5305 27.8641 59.3627 27.8981C60.1949 27.9321 61.024 27.7759 61.7868 27.4412C62.5497 27.1066 63.2262 26.6024 63.7651 25.9669C64.7182 24.8963 65.1424 23.616 65.1424 21.8421V17.169C65.1424 15.9888 65.0471 15.5906 64.6325 15.1018C64.4226 14.8598 64.1646 14.6641 63.875 14.5274C63.5853 14.3907 63.2704 14.316 62.9502 14.3079V14.3079ZM52.1063 18.6448C51.7405 17.6624 51.1439 16.7825 50.3669 16.0794C49.0802 14.9397 47.5623 14.4104 45.6013 14.4104H42.9326C41.6698 14.4104 40.8596 14.8872 40.5499 15.8409C40.4522 16.1366 40.4522 16.251 40.4522 17.3526V24.6055C40.4522 25.5139 40.4522 25.7284 40.5332 26.0241C40.5946 26.2742 40.7067 26.509 40.8624 26.714C41.0182 26.9191 41.2143 27.09 41.4386 27.2162C41.8318 27.4952 42.2464 27.5762 43.2734 27.5762H45.1033C45.8502 27.5896 46.5968 27.5345 47.3336 27.4117C48.259 27.2125 49.1306 26.816 49.889 26.2492C50.6473 25.6823 51.2746 24.9585 51.728 24.1271C52.1815 23.2957 52.4504 22.3762 52.5165 21.4313C52.5826 20.4865 52.4443 19.5385 52.111 18.652L52.1063 18.6448ZM46.6069 18.6448C46.6802 18.6642 46.7513 18.6914 46.8189 18.7259C47.2393 18.9362 47.5928 19.2595 47.8398 19.6596C48.0869 20.0597 48.2177 20.5207 48.2176 20.9909C48.2126 21.3995 48.1138 21.8015 47.9287 22.1658C47.7436 22.53 47.4772 22.8467 47.1501 23.0915C46.6354 23.4443 46.2804 23.5015 44.784 23.5182V18.4565H45.1415C45.6367 18.4316 46.1325 18.493 46.6069 18.6377V18.6448ZM76.5653 14.3079C76.2152 14.3103 75.871 14.3985 75.5629 14.5648C75.2547 14.731 74.9918 14.9703 74.7973 15.2616C74.4733 15.7193 74.3994 16.1104 74.3994 16.9782V19.4245L73.7704 18.6544L70.9516 15.171C70.4536 14.5606 69.9627 14.3079 69.3337 14.3079C67.9731 14.3079 67.0653 15.2282 67.0653 16.6397V24.9631C67.0653 25.9311 67.1653 26.3221 67.5108 26.8157C67.7186 27.0775 67.9826 27.2892 68.2833 27.4349C68.5841 27.5806 68.9137 27.6566 69.2479 27.6573C69.5663 27.6565 69.8807 27.5859 70.1688 27.4503C70.457 27.3148 70.712 27.1177 70.9158 26.8729C71.2971 26.396 71.409 26.0098 71.409 25.1348V22.3714L74.8402 26.7751C75.0336 27.0492 75.2905 27.2724 75.5888 27.4256C75.8872 27.5788 76.2181 27.6575 76.5534 27.6549C76.8792 27.6595 77.2017 27.5897 77.4965 27.4509C77.7913 27.3121 78.0506 27.1079 78.2547 26.8538C78.6288 26.3555 78.7194 25.9287 78.7194 24.8749V16.8376C78.7194 16.0221 78.5883 15.5715 78.2071 15.1018C78.0097 14.8556 77.7598 14.6566 77.4758 14.5193C77.1918 14.3819 76.8808 14.3097 76.5653 14.3079V14.3079ZM89.001 20.8383L90.5117 18.6448L91.205 17.6244C91.4305 17.2829 91.5492 16.882 91.5458 16.4728C91.531 15.8983 91.2945 15.3519 90.8857 14.9482C90.477 14.5446 89.9279 14.3151 89.3536 14.3079C88.9937 14.3102 88.6402 14.4039 88.3264 14.5804C88.0126 14.7568 87.7487 15.01 87.5594 15.3164L85.3029 18.6544L85.1576 18.8666V16.7589C85.1576 15.9745 84.9908 15.4809 84.581 15.0541C84.378 14.8209 84.1271 14.6343 83.8454 14.5071C83.5637 14.38 83.2578 14.3153 82.9488 14.3174C81.6502 14.3174 80.7805 15.3045 80.7805 16.7469V25.1872C80.7805 26.6988 81.6263 27.6645 82.9869 27.6645C84.2903 27.6645 85.1576 26.6845 85.1576 25.161V22.8936L88.4005 27.0207C88.5953 27.2298 88.832 27.3953 89.0953 27.5063C89.3586 27.6172 89.6423 27.6711 89.9279 27.6645C90.5058 27.6544 91.0567 27.4177 91.4618 27.0052C91.8669 26.5926 92.0939 26.0374 92.0938 25.459C92.1021 25.0257 91.9569 24.6034 91.684 24.2669L89.001 20.8383ZM109.314 14.3079C108.964 14.3103 108.62 14.3985 108.312 14.5648C108.003 14.731 107.741 14.9703 107.546 15.2616C107.224 15.7193 107.148 16.1104 107.148 16.9782V19.4245L106.514 18.6544L103.7 15.1805C103.205 14.5701 102.711 14.3174 102.08 14.3174C100.727 14.3174 99.8187 15.2377 99.8187 16.6492V24.9631C99.8187 25.9311 99.9164 26.3221 100.271 26.8157C100.473 27.0731 100.729 27.2823 101.021 27.428C101.314 27.5737 101.635 27.6521 101.961 27.6576C102.288 27.6631 102.612 27.5955 102.909 27.4597C103.206 27.3239 103.469 27.1234 103.679 26.8729C104.06 26.396 104.17 26.0098 104.17 25.1348V22.3714L107.598 26.7751C107.793 27.0487 108.05 27.2714 108.349 27.4245C108.648 27.5777 108.979 27.6567 109.314 27.6549C109.64 27.6595 109.962 27.5897 110.257 27.4509C110.552 27.3121 110.811 27.1079 111.015 26.8538C111.387 26.3555 111.492 25.9287 111.492 24.8749V16.8376C111.492 16.0221 111.361 15.5715 110.982 15.1018C110.781 14.8535 110.526 14.6533 110.238 14.5159C109.949 14.3786 109.634 14.3075 109.314 14.3079V14.3079ZM114.859 14.3079C113.715 14.3079 112.936 15.6883 112.936 16.8376C112.917 17.4422 112.955 18.0474 113.05 18.6448V18.6448C113.205 19.4149 113.586 20.1064 114.451 20.278C115.376 20.4616 116 19.6057 116.374 18.6448C116.616 18.0026 116.753 17.3255 116.779 16.6397C116.786 15.4857 116.007 14.3079 114.866 14.3079H114.859ZM95.5941 14.3079C95.2912 14.3032 94.9911 14.3649 94.7145 14.4884C94.4379 14.612 94.1916 14.7945 93.9929 15.0231C93.5378 15.5167 93.4448 15.9101 93.4448 17.0116V25.1538C93.4448 26.0598 93.5807 26.5176 93.9929 26.9706C94.2025 27.1903 94.4549 27.3647 94.7346 27.4828C95.0142 27.601 95.3151 27.6604 95.6187 27.6575C95.9222 27.6546 96.2219 27.5894 96.4993 27.4659C96.7766 27.3424 97.0257 27.1633 97.231 26.9396C97.6194 26.5033 97.7791 25.9859 97.7791 25.1538V17.0092C97.7791 15.9387 97.6433 15.4857 97.2025 15.0017C96.9991 14.7802 96.7514 14.604 96.4756 14.4844C96.1997 14.3649 95.9018 14.3048 95.6012 14.3079H95.5941Z" fill="#E3711C"/>
<path fill-rule="evenodd" clip-rule="evenodd" d="M91.6816 31.2266C91.6652 30.786 91.4968 30.3648 91.205 30.0344C90.997 29.7954 90.7409 29.6031 90.4535 29.47C90.1661 29.3368 89.8538 29.266 89.5371 29.2619C89.2194 29.2673 88.9069 29.3433 88.6222 29.4843C88.3374 29.6253 88.0875 29.8279 87.8906 30.0774C87.6019 30.3904 87.4412 30.8006 87.4403 31.2266V31.2266C87.4403 31.3815 87.4236 31.5699 87.4236 31.794V37.0537C87.4236 37.974 86.9804 38.551 86.2036 38.551C85.4268 38.551 84.9789 37.9502 84.9789 36.9893V31.794C84.9788 31.6045 84.9693 31.4151 84.9503 31.2266C84.9288 30.7427 84.7304 30.2837 84.3927 29.9367C84.1801 29.7102 83.9208 29.5326 83.6328 29.4162C83.3448 29.2998 83.035 29.2474 82.7248 29.2626C82.4146 29.2778 82.1114 29.3602 81.8362 29.5042C81.5609 29.6481 81.3202 29.8502 81.1307 30.0964C80.8666 30.4138 80.7216 30.8136 80.7209 31.2266V31.2266C80.6937 31.527 80.6833 31.8287 80.6899 32.1302V36.7747C80.6899 38.4843 80.9401 39.4141 81.7192 40.4942C81.7192 40.4942 81.7383 40.5228 81.7455 40.5228C82.2288 41.1972 82.8593 41.7526 83.5893 42.1467C84.3192 42.5409 85.1292 42.7634 85.9579 42.7974C86.7867 42.8314 87.6122 42.676 88.3719 42.343C89.1317 42.0101 89.8056 41.5082 90.3425 40.8757C90.4497 40.7517 90.5569 40.6253 90.6617 40.4942C91.3766 39.5071 91.7078 38.3364 91.7078 36.7747V32.0921C91.6959 31.7368 91.6959 31.465 91.6816 31.2266Z" fill="#DF1683"/>
<path fill-rule="evenodd" clip-rule="evenodd" d="M50.7338 40.4823C51.9252 39.256 52.5941 37.6147 52.5995 35.9045C52.5976 35.0967 52.4516 34.2958 52.1682 33.5393V33.5393C51.8342 32.6706 51.3201 31.8824 50.66 31.2266V31.2266C50.5885 31.167 50.5122 31.0955 50.4431 31.0287C49.1612 29.8867 47.6481 29.3597 45.6776 29.3597H43.016C41.7603 29.3597 40.9669 29.8366 40.6619 30.7688C40.6063 30.9159 40.5773 31.0717 40.5761 31.229V31.229C40.5618 31.4436 40.5618 31.7392 40.5618 32.29V33.5465V39.55C40.5618 40.0126 40.5618 40.2915 40.5761 40.5037C40.5796 40.6596 40.5995 40.8146 40.6357 40.9663C40.7016 41.2098 40.8151 41.4379 40.9697 41.6372C41.1243 41.8365 41.3169 42.0031 41.5363 42.1274C41.9176 42.3968 42.3274 42.4803 43.352 42.4803H45.1891C45.9351 42.491 46.6807 42.4359 47.417 42.3158C48.5673 42.0748 49.6311 41.527 50.4955 40.7303C50.5813 40.6516 50.66 40.5729 50.7338 40.5037V40.4823ZM44.8341 33.5465V33.3415H45.2296C45.7502 33.3135 46.2714 33.383 46.7665 33.5465V33.5465C46.8175 33.5726 46.87 33.5957 46.9238 33.6156C47.3533 33.8295 47.7147 34.159 47.9673 34.5672C48.2198 34.9753 48.3536 35.4459 48.3534 35.926C48.3486 36.3412 48.2476 36.7496 48.0582 37.1191C47.8688 37.4885 47.5963 37.809 47.2621 38.0551C46.7451 38.4223 46.3757 38.4819 44.8794 38.501H44.8436V33.5465H44.8341Z" fill="#DF1683"/>
<path fill-rule="evenodd" clip-rule="evenodd" d="M66.4243 33.5464C66.1035 32.6894 65.6178 31.9036 64.9946 31.2337C64.34 30.5443 63.5521 29.9954 62.6787 29.6203C61.8054 29.2452 60.865 29.0518 59.9146 29.0518C58.9642 29.0518 58.0238 29.2452 57.1505 29.6203C56.2771 29.9954 55.4892 30.5443 54.8345 31.2337C54.2141 31.903 53.7329 32.6892 53.4192 33.5464C53.1579 34.2861 53.0249 35.0651 53.026 35.8496C53.0162 37.5597 53.6353 39.2137 54.7654 40.4965V40.4965C55.4149 41.2228 56.2102 41.8037 57.0993 42.2014C57.9884 42.5992 58.9514 42.8047 59.9253 42.8047C60.8992 42.8047 61.8622 42.5992 62.7513 42.2014C63.6405 41.8037 64.4357 41.2228 65.0852 40.4965V40.4965C65.9162 39.5679 66.4797 38.4309 66.7155 37.2068C66.9514 35.9828 66.8507 34.7177 66.4243 33.5464V33.5464ZM59.9384 38.5724C59.2396 38.563 58.5726 38.2785 58.082 37.7804C57.5914 37.2824 57.3167 36.611 57.3174 35.9116C57.32 35.4058 57.4711 34.912 57.752 34.4915C58.0329 34.0709 58.4311 33.7423 58.8972 33.5464V33.5464C59.2308 33.4133 59.5864 33.3438 59.9456 33.3414C60.3032 33.3438 60.6572 33.4134 60.9892 33.5464V33.5464C61.4558 33.7474 61.854 34.0798 62.1354 34.5031C62.4167 34.9264 62.569 35.4224 62.5738 35.9307C62.5682 36.6269 62.2896 37.293 61.7981 37.7858C61.3065 38.2785 60.6413 38.5584 59.9456 38.5653L59.9384 38.5724Z" fill="#DF1683"/>
<path fill-rule="evenodd" clip-rule="evenodd" d="M79.2412 31.2266C79.2122 30.7888 79.0454 30.3715 78.7646 30.0345C78.5665 29.7943 78.318 29.6007 78.0368 29.4672C77.7555 29.3337 77.4485 29.2636 77.1372 29.262C76.7917 29.2641 76.4517 29.3498 76.1464 29.5117C75.841 29.6736 75.5793 29.9069 75.3835 30.1918C75.1672 30.4953 75.0424 30.8544 75.0237 31.2266V31.2266C75.0237 31.4197 75.0023 31.6391 75.0023 31.8918V34.4501L74.2564 33.5465L72.3788 31.2337L71.4638 30.1274C70.9873 29.5147 70.4964 29.2691 69.8769 29.2691C68.6426 29.2691 67.7896 30.0392 67.6609 31.2337C67.6609 31.341 67.6609 31.4483 67.6609 31.5604V39.9053C67.6609 40.1437 67.6609 40.3225 67.6609 40.5013C67.6778 40.9347 67.8255 41.3527 68.0845 41.7003C68.3435 42.048 68.7017 42.309 69.1119 42.4489C69.5221 42.5888 69.965 42.6011 70.3823 42.4841C70.7996 42.3671 71.1717 42.1264 71.4495 41.7936C71.7545 41.4318 71.9231 40.9746 71.9261 40.5013V40.5013C71.938 40.3654 71.938 40.2319 71.938 40.0817V37.1944L74.509 40.4942L75.4454 41.6863C75.6359 41.9582 75.8892 42.1799 76.1838 42.3327C76.4783 42.4854 76.8054 42.5647 77.1372 42.5637C77.4579 42.5679 77.7752 42.498 78.0645 42.3595C78.3538 42.221 78.6072 42.0175 78.8051 41.765C79.0896 41.3998 79.2485 40.9524 79.2579 40.4894V40.4775C79.2579 40.2939 79.2817 40.0698 79.2817 39.8099V31.7535C79.2722 31.5532 79.2531 31.3816 79.2412 31.2266Z" fill="#DF1683"/>
<path fill-rule="evenodd" clip-rule="evenodd" d="M103.295 31.2265C103.273 30.7632 103.084 30.3235 102.764 29.9883C102.443 29.6532 102.013 29.4452 101.551 29.4026C101.429 29.3767 101.304 29.3632 101.179 29.3621C100.993 29.3621 100.703 29.3621 100.078 29.3621H95.6918C93.9667 29.3621 93.7856 29.3835 93.3472 29.5743C93.0397 29.7353 92.778 29.9718 92.5868 30.2617C92.3955 30.5515 92.2808 30.8851 92.2535 31.2313V31.2313C92.2511 31.275 92.2511 31.3188 92.2535 31.3624C92.2619 31.8945 92.4783 32.4021 92.8563 32.7763C93.2447 33.1673 93.7213 33.339 94.4695 33.339H95.6728V39.9744C95.6728 40.1723 95.6728 40.3368 95.687 40.4989C95.6893 40.9176 95.8109 41.327 96.0373 41.6791C96.2404 41.9591 96.5075 42.1864 96.8164 42.3419C97.1252 42.4975 97.4667 42.5768 97.8125 42.5732C98.1646 42.5786 98.5121 42.492 98.8205 42.3218C99.129 42.1516 99.3876 41.9038 99.5709 41.6028C99.7821 41.2721 99.9014 40.8911 99.9165 40.4989C99.9331 40.3296 99.9403 40.1508 99.9403 39.9434V33.339H100.946C101.737 33.339 102.278 33.1792 102.614 32.8741C102.826 32.6776 102.998 32.4405 103.118 32.1768C103.238 31.9132 103.304 31.6282 103.312 31.3386C103.298 31.2933 103.298 31.2599 103.295 31.2265Z" fill="#DF1683"/>
<path d="M2.32794 18.6187V22.102C2.8045 21.084 3.91248 19.9991 5.68526 18.8475C4.48826 18.816 3.3438 18.3489 2.46614 17.5338C2.37403 17.888 2.32759 18.2526 2.32794 18.6187V18.6187Z" fill="#E3711C"/>
<path d="M8.79954 35.5827C7.36988 35.3848 6.45251 34.8102 6.07366 33.8517C6.07366 33.8517 2.52572 24.8535 2.48045 24.7462C2.41725 24.6513 2.36301 24.5507 2.31842 24.4458V48.46C2.32093 49.6051 2.77614 50.7026 3.58465 51.513C4.39316 52.3233 5.48927 52.7807 6.63361 52.7851H17.9374C17.5453 52.3737 17.2132 51.9089 16.951 51.4046C16.951 51.4046 10.0219 37.9526 8.79954 35.5827Z" fill="#E3711C"/>
<path d="M32.3365 14.308H25.9412C25.9412 14.308 25.9412 14.3223 25.9412 14.3318C26.0551 14.4874 26.1496 14.6563 26.2223 14.8349C26.2706 14.9761 26.3096 15.1202 26.3391 15.2665C29.4367 23.1154 29.8656 24.2098 29.9347 24.3767C29.9328 24.3869 29.9328 24.3974 29.9347 24.4077C29.9335 24.399 29.9335 24.3902 29.9347 24.3815C30.0406 24.6553 30.0955 24.9462 30.0967 25.2398C30.0967 25.9551 29.775 26.7157 29.1436 27.5001C29.9228 29.9082 31.3524 34.6958 33.8924 44.085L34.0306 44.588C34.028 44.5763 34.028 44.564 34.0306 44.5523C35.0195 47.7758 33.5374 50.8157 30.1324 52.7899H32.3389C33.4818 52.7823 34.5753 52.3229 35.381 51.5118C36.1867 50.7007 36.6392 49.6037 36.6398 48.4601V18.6187C36.6366 17.4772 36.1824 16.3833 35.3762 15.5757C34.57 14.7681 33.4773 14.3124 32.3365 14.308V14.308Z" fill="#DF1683"/>
<path d="M32.7726 44.9314L32.6367 44.4259C29.9514 34.5217 28.5146 29.7556 27.7711 27.4977C27.741 27.4047 27.7361 27.3053 27.757 27.2097C27.778 27.1142 27.824 27.0259 27.8903 26.9541C28.6623 26.1005 28.9411 25.4019 28.7219 24.8464L25.1096 15.6885C25.0913 15.6521 25.0807 15.6123 25.0786 15.5716C25.0695 15.4852 25.0469 15.4008 25.0119 15.3213C24.9779 15.2224 24.9253 15.131 24.857 15.0519C24.8411 15.0282 24.8268 15.0035 24.8141 14.978C24.3257 14.0672 22.2241 13.9718 19.0478 14.7038C17.0029 15.1649 14.9976 15.7868 13.0504 16.5635C11.1046 17.3357 9.22143 18.2571 7.41756 19.3197C4.59875 20.9696 3.12858 22.486 3.4026 23.4754C3.40909 23.5029 3.41386 23.5308 3.4169 23.5589C3.43422 23.7513 3.50248 23.9357 3.61466 24.093C3.64107 24.1282 3.66122 24.1677 3.67423 24.2098L7.28651 33.3701C7.50731 33.9185 8.18719 34.2364 9.32615 34.3238C9.42038 34.3286 9.51161 34.3586 9.59038 34.4106C9.66915 34.4626 9.73258 34.5347 9.77411 34.6195L18.1138 50.7895C19.715 53.9653 24.278 53.8604 27.8521 52.4275C31.8742 50.8109 33.7185 48.0094 32.7726 44.9314ZM13.5675 17.7365C19.5434 15.3523 23.3678 15.2426 24.0064 15.6432C23.9301 15.9317 23.4583 16.5134 22.5314 17.2382C20.4227 17.46 17.2894 18.3231 14.2728 19.5176C11.2562 20.7121 8.36828 22.3787 6.6789 23.64C5.5042 23.7473 4.77269 23.659 4.5082 23.4945C4.69406 22.7602 7.5915 20.1065 13.5675 17.7365ZM8.45168 32.7383L5.42557 25.1778C8.24676 25.3805 12.662 24.0381 15.5571 22.8842C18.4521 21.7302 22.5981 19.6892 24.5139 17.5911L27.5448 25.1611C27.428 25.9908 24.2875 28.7375 18.7833 30.9191C13.2792 33.1007 9.09741 33.27 8.45168 32.7383ZM27.4018 51.1638C24.2518 52.4298 20.4441 52.4871 19.2623 50.1386C18.8548 49.3255 13.6175 39.7075 11.0656 34.2928C13.6866 34.0305 16.8747 33.1007 19.2194 32.1589C21.564 31.2171 24.5306 29.715 26.606 28.12C28.4574 33.8112 31.3072 44.352 31.5669 45.2151C32.3722 47.7949 30.3946 49.9574 27.4018 51.1638Z" fill="#663C20"/>
<path d="M6.67887 23.6399C8.36825 22.3715 11.2562 20.7192 14.2727 19.5175C17.2893 18.3158 20.4227 17.4599 22.5314 17.2382C23.4583 16.5229 23.9301 15.9316 24.0063 15.6431C23.3678 15.2425 19.5434 15.357 13.5674 17.7365C7.59147 20.116 4.69403 22.7601 4.51294 23.4944C4.76551 23.659 5.50417 23.7472 6.67887 23.6399Z" fill="white"/>
<path d="M31.5716 45.215C31.3119 44.3519 28.4621 33.8111 26.6107 28.1199C24.5305 29.7149 21.5569 31.2194 19.2241 32.1588C16.8914 33.0982 13.6818 34.0304 11.0703 34.2927C13.6223 39.7074 18.8596 49.3254 19.267 50.1385C20.4584 52.487 24.2565 52.4297 27.4065 51.1637C30.3945 49.9573 32.3722 47.7947 31.5716 45.215ZM21.3901 39.8862C21.182 40.3114 20.8496 40.6631 20.437 40.8947C20.1666 41.0331 19.88 41.1373 19.5839 41.2047C19.3456 41.2738 19.1074 41.3286 18.8691 41.3859C18.6152 41.4748 18.3405 41.4856 18.0804 41.4169C17.8545 41.3582 17.6539 41.2276 17.5085 41.0449C17.398 40.8761 17.3069 40.6953 17.2369 40.5061C16.8223 39.5881 16.4101 38.6726 15.9979 37.7451C15.8096 37.3326 15.7882 37.285 15.7787 37.1681C15.7524 36.7771 16.0169 36.522 16.5483 36.4028C16.92 36.3146 17.2965 36.2168 17.6658 36.1167C18.392 35.8831 19.1748 35.8948 19.8937 36.15C20.3065 36.2966 20.6772 36.5422 20.9731 36.8653V36.8653C21.2006 37.1029 21.3773 37.3844 21.4925 37.6927C21.6296 38.0451 21.6913 38.4225 21.6736 38.8003C21.656 39.1781 21.5594 39.548 21.3901 39.8862ZM26.2056 37.6378C26.0153 38.1235 25.7055 38.5532 25.3049 38.8872C25.0586 39.0709 24.7953 39.2305 24.5186 39.364C24.2804 39.4689 24.0683 39.5858 23.8348 39.6835C23.4607 39.8552 23.2891 39.8862 23.1009 39.8456C22.9971 39.8314 22.8975 39.7959 22.8081 39.7414C22.7187 39.6868 22.6415 39.6143 22.5814 39.5285C22.4836 39.3585 22.4037 39.1787 22.3432 38.9921C21.9858 38.0527 21.6268 37.1173 21.2662 36.1858C21.1704 35.9973 21.1098 35.7929 21.0875 35.5826C21.0708 35.1701 21.3257 34.8506 21.819 34.6289C22.1716 34.4763 22.5195 34.3094 22.8578 34.1401C23.6203 33.761 24.2708 33.6418 24.8999 33.8182C25.2792 33.9213 25.6178 34.1386 25.8697 34.4405V34.4405C26.0719 34.6877 26.2241 34.972 26.3176 35.2774C26.5479 36.0545 26.5076 36.8867 26.2032 37.6378H26.2056Z" fill="white"/>
<path d="M18.8453 37.6307C18.8137 37.626 18.7816 37.626 18.75 37.6307V37.6307C18.5371 37.6317 18.3254 37.6622 18.1209 37.7213C18.0726 37.7381 18.0233 37.7516 17.9732 37.7619C18.2424 38.4104 18.5212 39.0565 18.8 39.7003C19.3957 39.5286 19.5291 39.4618 19.6768 39.2735C19.7681 39.137 19.8247 38.9804 19.8418 38.8171C19.8588 38.6538 19.8357 38.4888 19.7745 38.3365C19.6943 38.1482 19.5664 37.9841 19.4034 37.8603C19.2405 37.7365 19.0481 37.6574 18.8453 37.6307V37.6307Z" fill="white"/>
<path d="M23.9253 35.5827C23.892 35.5827 23.8658 35.5827 23.8324 35.5827C23.6281 35.6222 23.4307 35.6913 23.2463 35.7877C23.2056 35.8134 23.1625 35.835 23.1176 35.8521C23.3559 36.5125 23.5941 37.1754 23.8324 37.8334C24.3924 37.5545 24.5115 37.4591 24.6497 37.223C24.7372 37.0658 24.7923 36.8925 24.8115 36.7135C24.8307 36.5345 24.8138 36.3534 24.7617 36.1811C24.7033 36.0058 24.5909 35.8534 24.4407 35.7459C24.2905 35.6384 24.11 35.5813 23.9253 35.5827Z" fill="white"/>
<path d="M27.5328 25.161L24.5019 17.5909C22.5957 19.6891 18.445 21.7419 15.5451 22.884C12.6453 24.0261 8.23482 25.3803 5.42554 25.1776L8.46356 32.7381C9.10929 33.2698 13.2767 33.1005 18.7833 30.9189C24.2899 28.7373 27.4161 25.9907 27.5328 25.161Z" fill="white"/>
<path d="M20.9588 36.8844C20.6629 36.5612 20.2922 36.3156 19.8794 36.1691C19.1605 35.9139 18.3777 35.9022 17.6515 36.1358C17.2822 36.2359 16.9057 36.3336 16.534 36.4219C15.9979 36.5411 15.7382 36.7962 15.7644 37.1872C15.7644 37.304 15.7954 37.3517 15.9836 37.7642C16.3958 38.6917 16.808 39.6072 17.2226 40.5252C17.2926 40.7144 17.3837 40.8952 17.4943 41.064C17.6396 41.2467 17.8403 41.3772 18.0661 41.4359C18.3262 41.5047 18.6009 41.4939 18.8548 41.405C19.0931 41.3477 19.3314 41.2929 19.5696 41.2238C19.8658 41.1563 20.1523 41.0522 20.4227 40.9138C20.8353 40.6822 21.1678 40.3305 21.3758 39.9053C21.5405 39.5688 21.6336 39.2018 21.6491 38.8275C21.6647 38.4533 21.6025 38.0798 21.4663 37.7308C21.357 37.4168 21.1842 37.1287 20.9588 36.8844V36.8844ZM19.6769 39.2687C19.5291 39.4594 19.3957 39.5238 18.8 39.6954C18.5212 39.0517 18.2425 38.4056 17.9732 37.757C18.0233 37.7468 18.0726 37.7332 18.1209 37.7165C18.3254 37.6574 18.5371 37.6269 18.75 37.6259V37.6259C18.7816 37.6212 18.8137 37.6212 18.8453 37.6259C19.0471 37.6517 19.2388 37.7294 19.4017 37.8514C19.5645 37.9734 19.693 38.1356 19.7746 38.3221C19.8374 38.4757 19.8613 38.6425 19.8443 38.8076C19.8273 38.9728 19.7697 39.1311 19.6769 39.2687V39.2687Z" fill="#E3711C"/>
<path d="M25.8673 34.4334C25.6154 34.1315 25.2769 33.9142 24.8975 33.8111C24.2685 33.6347 23.618 33.7539 22.8555 34.133C22.5171 34.3023 22.1692 34.4692 21.8166 34.6218C21.3162 34.8602 21.0684 35.1702 21.0851 35.5755C21.1074 35.7858 21.168 35.9902 21.2638 36.1787C21.626 37.1118 21.985 38.0472 22.3408 38.985C22.4013 39.1716 22.4812 39.3514 22.5791 39.5214C22.6392 39.6073 22.7163 39.6797 22.8057 39.7343C22.8951 39.7889 22.9948 39.8244 23.0985 39.8386C23.2868 39.8791 23.4583 39.8386 23.8324 39.6764C24.0707 39.5787 24.2851 39.4618 24.5163 39.3569C24.793 39.2235 25.0563 39.0638 25.3026 38.8801C25.7031 38.5461 26.0129 38.1164 26.2033 37.6307C26.5085 36.8772 26.548 36.0422 26.3152 35.2632C26.2208 34.9603 26.0687 34.6785 25.8673 34.4334V34.4334ZM24.6449 37.2326C24.5067 37.471 24.3876 37.564 23.8276 37.8429C23.5894 37.1849 23.3511 36.522 23.1128 35.8616C23.1578 35.8445 23.2009 35.823 23.2415 35.7972C23.4259 35.7008 23.6233 35.6317 23.8276 35.5922V35.5922C23.861 35.5922 23.8872 35.5922 23.9206 35.5922C24.1056 35.5924 24.2859 35.6514 24.4353 35.7607C24.5847 35.8699 24.6957 36.0238 24.7521 36.2002C24.8037 36.3708 24.8207 36.5499 24.8023 36.7272C24.7839 36.9044 24.7304 37.0762 24.6449 37.2326V37.2326Z" fill="#DF1683"/>
</g>
<defs>
<clipPath id="clip0">
<rect width="119" height="55" fill="white"/>
</clipPath>
</defs>
</svg>
