<svg width="56" height="41" viewBox="0 0 56 41" fill="none" xmlns="http://www.w3.org/2000/svg">
<path d="M26.7138 36.4206C39.8954 36.4206 50.5947 25.7213 50.5947 12.5397H2.83289C2.83289 25.7213 13.5322 36.4206 26.7138 36.4206Z" fill="#13110C"/>
<path d="M8.18255 0C9.68046 0 10.6648 0.385176 11.8203 1.28392C12.3767 1.71189 12.6763 2.09707 12.6763 2.69623C12.6763 3.2526 12.2055 3.85176 11.4779 3.85176C11.0928 3.85176 10.836 3.68057 10.5792 3.46658C9.93725 2.86742 9.29528 2.43945 8.26814 2.43945C6.59904 2.43945 5.27233 3.85176 5.27233 5.47806C5.27233 7.18995 6.59905 8.55946 8.39654 8.55946C9.59486 8.55946 10.2368 7.87471 10.6648 7.48953C10.9216 7.27554 11.2212 7.10436 11.5207 7.10436C12.3339 7.10436 12.7619 7.70352 12.7619 8.25988C12.7619 9.45821 10.5364 10.9989 8.39654 10.9989C5.35793 10.9989 2.83289 8.51667 2.83289 5.47806C2.83289 2.43945 5.35793 0 8.18255 0Z" fill="#E30613"/>
<path d="M16.8275 4.27972H20.8077V1.4123C20.8077 0.513556 21.364 0.0427856 22.0488 0.0427856C22.7335 0.0427856 23.2471 0.513556 23.2471 1.4123V9.54379C23.2471 10.4425 22.6907 10.9133 22.0488 10.9133C21.4068 10.9133 20.8077 10.4425 20.8077 9.54379V6.50518H16.8275V9.54379C16.8275 10.4425 16.2711 10.9133 15.6292 10.9133C14.9872 10.9133 14.3881 10.4425 14.3881 9.54379V1.4123C14.3881 0.513556 14.9444 0.0427856 15.6292 0.0427856C16.2711 0.0427856 16.8275 0.513556 16.8275 1.4123V4.27972Z" fill="#E30613"/>
<path d="M25.5581 1.4123C25.5581 0.513556 26.1145 0.0427856 26.7992 0.0427856C27.4412 0.0427856 27.9976 0.513556 27.9976 1.4123V9.54379C27.9976 10.4425 27.4412 10.9133 26.7992 10.9133C26.1573 10.9133 25.5581 10.4425 25.5581 9.54379V1.4123Z" fill="#E30613"/>
<path d="M36.9422 6.41959V1.4123C36.9422 0.513556 37.4986 0.0427856 38.1405 0.0427856C38.8253 0.0427856 39.3817 0.513556 39.3817 1.4123V9.3726C39.3817 9.58659 39.3817 9.88617 39.2961 10.1002C39.1677 10.6137 38.6113 10.9133 38.0977 10.9133C37.4986 10.9133 37.2418 10.6137 36.8994 10.1858L32.5769 4.6221V9.54379C32.5769 10.4425 32.0205 10.9133 31.3786 10.9133C30.7366 10.9133 30.1375 10.4425 30.1375 9.54379V1.32671C30.1375 0.599151 30.651 0.0427856 31.3358 0.0427856C31.8065 0.0427856 32.1061 0.299569 32.4485 0.727542L36.9422 6.41959Z" fill="#E30613"/>
<path d="M46.8285 6.89035L45.5446 3.80894L44.2607 6.89035H46.8285ZM47.6417 8.98742H43.3619L43.0196 9.75777C42.72 10.4425 42.3776 10.8705 41.864 10.8705C40.9225 10.8705 40.4945 10.2285 40.4945 9.80057C40.4945 9.37259 40.6657 9.03021 40.7513 8.77343L44.3035 0.855924C44.5175 0.342356 44.9454 0.0855713 45.5018 0.0855713C46.0154 0.0855713 46.4433 0.385153 46.6573 0.855924L50.2951 8.73063C50.4235 8.98742 50.5519 9.3298 50.5519 9.75777C50.5519 10.2285 50.1239 10.9133 49.1824 10.9133C48.6688 10.9133 48.3264 10.5281 47.984 9.80057L47.6417 8.98742Z" fill="#E30613"/>
<path d="M18.7961 20.4999L20.2512 15.4498C20.508 14.6367 20.8076 14.2087 21.5351 14.2087C22.2199 14.2087 22.7763 14.7223 22.7763 15.3642C22.7763 15.6638 22.6479 15.9206 22.6051 16.1774L20.08 24.1377C19.866 24.7796 19.4809 25.0792 18.9245 25.0792C18.3253 25.0792 17.9401 24.7796 17.7262 24.2233L15.7147 18.574L13.7888 24.2233C13.6176 24.7368 13.1468 25.0792 12.5905 25.0792C11.9485 25.0792 11.6489 24.694 11.435 24.1377L8.86712 16.2202C8.78153 16.0062 8.69592 15.7066 8.69592 15.407C8.69592 14.7651 9.2523 14.2087 9.89426 14.2087C10.6218 14.2087 10.9214 14.6795 11.1782 15.4926L12.7189 20.4999L14.5164 15.0646C14.6876 14.5511 15.1583 14.1659 15.7575 14.1659C16.3138 14.1659 16.7846 14.5083 16.913 14.9362L18.7961 20.4999Z" fill="white"/>
<path d="M25.7721 19.644C25.7721 21.3558 27.1416 22.7254 28.8535 22.7254C30.5226 22.7254 31.8921 21.3986 31.8921 19.7295C31.8921 17.9749 30.5654 16.6053 28.8963 16.6053C27.1844 16.6053 25.7721 17.9749 25.7721 19.644ZM34.3316 19.7295C34.3316 22.6826 31.8493 25.122 28.8107 25.122C25.7293 25.122 23.3326 22.6826 23.3326 19.5584C23.3326 16.6053 25.8149 14.1659 28.8535 14.1659C31.8493 14.1659 34.3316 16.6909 34.3316 19.7295Z" fill="white"/>
<path d="M40.5371 19.5156L44.0465 22.7254C44.4317 23.0678 44.7312 23.3674 44.7312 23.881C44.7312 24.5657 44.1749 25.0793 43.4901 25.0793C43.0193 25.0793 42.7198 24.8225 42.3774 24.4801L38.3116 20.6284V23.667C38.3116 24.5657 37.7553 25.0365 37.1133 25.0365C36.4714 25.0365 35.8722 24.5657 35.8722 23.667V15.5355C35.8722 14.6367 36.4286 14.1232 37.1133 14.1232C37.7553 14.1232 38.3116 14.6367 38.3116 15.5355V18.3601L41.8638 14.7651C42.2062 14.4228 42.5058 14.1232 43.0194 14.1232C43.7041 14.1232 44.2177 14.6367 44.2177 15.3215C44.2177 15.8351 43.9181 16.0918 43.5757 16.477L40.5371 19.5156Z" fill="white"/>
<path d="M49.3962 26.7483H3.43185C3.17506 26.7483 2.91829 26.9195 2.87549 27.2191C2.87549 27.2619 2.87549 27.2619 2.87549 27.3047C2.87549 27.3475 2.87549 27.3475 2.87549 27.3903C2.91829 27.647 3.13226 27.861 3.38905 27.861L49.3534 29.2305C50.0381 29.2305 50.5945 28.717 50.5945 28.0322C50.5945 27.3047 50.0809 26.7483 49.3962 26.7483Z" fill="#00A84F"/>
<path d="M43.9182 38.6031L0.73567 22.8537C0.478886 22.7681 0.2221 22.8537 0.0509103 23.1105C0.0509103 23.1105 0.0509077 23.1533 0.00811034 23.1961C0.00811034 23.2389 0.00811034 23.2389 0.00811034 23.2817C-0.034687 23.5384 0.0936998 23.7952 0.350484 23.9236L43.0622 40.9142C43.7042 41.1709 44.3889 40.8286 44.6457 40.1866C44.8597 39.5447 44.5601 38.8599 43.9182 38.6031Z" fill="#00A84F"/>
<path d="M53.7615 15.2787C54.1039 15.2787 54.4891 15.2787 54.4891 14.8507C54.4891 14.5083 54.2323 14.4655 53.9327 14.4655H53.3764V15.2787H53.7615ZM53.3764 16.5626H53.0768V14.2087H53.9755C54.4891 14.2087 54.7459 14.4227 54.7459 14.8507C54.7459 15.2787 54.4891 15.4498 54.1467 15.4926L54.8314 16.5626H54.4891L53.8471 15.4926H53.3335V16.5626H53.3764ZM52.0924 15.407C52.0924 16.3914 52.82 17.1617 53.8043 17.1617C54.7887 17.1617 55.5162 16.3914 55.5162 15.407C55.5162 14.4227 54.7887 13.6524 53.8043 13.6524C52.82 13.6524 52.0924 14.4227 52.0924 15.407ZM55.8586 15.407C55.8586 16.5626 54.9598 17.4613 53.8471 17.4613C52.6916 17.4613 51.7928 16.5626 51.7928 15.407C51.7928 14.2515 52.6916 13.3956 53.8471 13.3956C54.9598 13.3528 55.8586 14.2515 55.8586 15.407Z" fill="#13110C"/>
</svg>
