<svg width="105" height="37" viewBox="0 0 105 37" fill="none" xmlns="http://www.w3.org/2000/svg">
<path d="M88.0053 34.3279L65.1589 36.3095L65.9166 32.7543L88.763 30.7145L88.0053 34.3279Z" fill="#FBBA00"/>
<path d="M100.652 8.91715C101.177 8.85887 102.459 8.97544 103.042 9.49997L104.266 3.7301C103.1 3.55525 101.293 3.55525 100.128 3.67181C94.4161 4.19635 92.4345 8.62575 91.8517 10.4908C90.7444 6.99386 87.4223 4.83745 83.1095 5.18714C76.8733 5.71167 70.5206 11.3067 69.1219 17.6011C69.0636 17.8342 69.0053 18.0674 69.0053 18.3005C68.4225 17.368 67.4317 16.7852 65.9747 16.6103C66.9655 16.7269 69.5881 14.9202 69.4133 11.4233C69.2967 8.50919 66.8489 7.22699 62.5361 7.63496L56.8828 8.10121L53.5024 24.0704L50.938 8.27606L42.8369 18.1256L38.1744 9.61653L31.0057 25.9937L22.4383 26.7513L23.0212 24.0704L29.7818 23.4875L30.7726 18.7667L24.0119 19.3496L24.5948 16.6686L33.0456 15.9109L34.2695 10.1993L20.1071 11.4233L17.2513 25.0029C17.193 22.7882 15.9691 21.506 13.6961 21.2729C14.6869 21.3894 17.3096 19.5827 17.1347 16.0858C17.0182 13.1717 14.5703 11.8895 10.2575 12.2975L4.60418 12.7637L-6.10352e-05 34.3862L8.10107 33.6868C12.5888 33.2789 15.3863 30.4813 16.4936 28.3249L15.5028 32.9874L34.5609 31.2973L38.7572 21.7974L42.1375 27.8587L47.3246 21.5643L48.3736 30.0734L60.3797 29.0243C65.625 28.558 68.5391 24.828 69.1802 22.6716C70.2292 26.2851 73.6096 28.4998 77.9807 28.0918C84.1585 27.5673 90.5112 22.0305 91.91 15.6778C91.9683 15.4447 92.0265 15.2116 92.0265 14.9202C93.3087 16.96 95.9314 17.5428 95.5234 19.2913C95.2903 20.3403 94.4161 21.0397 93.367 21.098C92.8425 21.1563 92.0848 21.1563 90.8026 20.8649L89.637 26.4016C89.637 26.4016 92.318 26.9844 94.8241 26.5182C98.4958 25.8771 102.051 23.9538 102.401 18.7085C102.867 12.9386 97.4467 13.4631 98.0295 10.8404C98.3792 9.55825 99.4283 9.03372 100.652 8.91715ZM10.6655 26.693C10.4906 27.4507 9.84952 28.7329 8.10107 28.9077L6.64404 29.0243L7.45998 25.1194L8.74218 25.0029C9.67468 24.9446 11.0152 25.1194 10.6655 26.693ZM12.0059 18.3588C11.598 20.0489 10.0244 20.2238 9.38328 20.2821L8.45077 20.3403L9.20843 16.9017L10.1992 16.8434C10.8403 16.7852 12.4139 16.7269 12.0059 18.3588ZM63.0023 22.0888C62.8275 22.8464 62.1864 24.1286 60.4379 24.3035L58.9809 24.42L59.7968 20.5152L61.079 20.3986C61.9533 20.3403 63.352 20.5152 63.0023 22.0888ZM64.3428 13.8128C63.9348 15.503 62.3612 15.6778 61.7201 15.7361L60.7876 15.7944L61.487 12.3558L62.4778 12.2975C63.1772 12.2392 64.7508 12.1226 64.3428 13.8128ZM86.0818 16.1441C85.4407 19.1747 82.3518 21.9722 79.2629 22.2636C76.2322 22.555 74.2507 20.2238 74.9501 17.0766C75.6494 13.9294 78.7383 11.1901 81.769 10.957C84.8579 10.7239 86.7812 13.1717 86.0818 16.1441Z" fill="#26358C"/>
<path d="M68.3644 3.61346L45.5181 5.59503L46.2757 1.98157L69.1221 0L68.3644 3.61346Z" fill="#E30613"/>
</svg>
