<svg width="21" height="22" viewBox="0 0 21 22" fill="none" xmlns="http://www.w3.org/2000/svg">
<path d="M16.3516 13.2633C16.65 13.2633 16.9349 13.3175 17.2063 13.4259C17.4776 13.5343 17.7218 13.6969 17.9389 13.9137L20.1774 16.1497C20.3877 16.3598 20.5471 16.6003 20.6556 16.8713C20.7641 17.1424 20.8218 17.4303 20.8286 17.7352C20.8286 18.0334 20.7743 18.318 20.6658 18.589C20.5572 18.86 20.3944 19.1039 20.1774 19.3208L20.0349 19.463C19.6686 19.8289 19.3328 20.1542 19.0276 20.4388C18.7223 20.7233 18.4035 20.9605 18.0711 21.1502C17.7387 21.3399 17.3691 21.489 16.9621 21.5974C16.5551 21.7058 16.07 21.7566 15.507 21.7499C14.6591 21.7499 13.7874 21.6177 12.892 21.3535C11.9966 21.0892 11.108 20.7233 10.2262 20.2558C9.34434 19.7883 8.47607 19.2327 7.62136 18.589C6.76666 17.9453 5.96283 17.244 5.20988 16.4851C4.45692 15.7262 3.75824 14.9199 3.11382 14.0662C2.4694 13.2124 1.91995 12.3451 1.46546 11.4643C1.01098 10.5835 0.651457 9.69922 0.386906 8.8116C0.122355 7.92398 -0.00652899 7.07024 0.000254376 6.25038C0.000254376 5.68799 0.0477379 5.20691 0.142705 4.80714C0.237672 4.40738 0.383514 4.04149 0.580232 3.70948C0.776949 3.37747 1.01437 3.06239 1.29249 2.76426C1.5706 2.46613 1.8962 2.13073 2.26929 1.75807L2.43209 1.59545C2.64237 1.3854 2.88318 1.22278 3.15452 1.1076C3.42585 0.992408 3.71415 0.934814 4.0194 0.934814C4.31786 0.934814 4.60277 0.992408 4.8741 1.1076C5.14544 1.22278 5.38964 1.3854 5.6067 1.59545L7.84521 3.83144C8.0555 4.04149 8.21491 4.28203 8.32344 4.55305C8.43197 4.82408 8.48963 5.11205 8.49642 5.41696C8.49642 5.71509 8.44554 5.97935 8.34379 6.20972C8.24204 6.4401 8.11655 6.65353 7.96731 6.85003C7.81808 7.04652 7.65528 7.2193 7.47891 7.36837C7.30254 7.51744 7.13635 7.66989 6.98034 7.82573C6.82432 7.98157 6.69883 8.13064 6.60386 8.27293C6.50889 8.41522 6.45802 8.58123 6.45123 8.77095C6.45123 9.02842 6.54281 9.24864 6.72596 9.43158L12.3324 15.0317C12.5156 15.2147 12.736 15.3061 12.9938 15.3061C13.1702 15.3061 13.333 15.2553 13.4822 15.1537C13.6314 15.052 13.784 14.9267 13.9401 14.7776C14.0961 14.6286 14.2487 14.4659 14.3979 14.2898C14.5472 14.1136 14.7202 13.9476 14.9169 13.7918C15.1136 13.6359 15.3239 13.5106 15.5477 13.4157C15.7716 13.3208 16.0395 13.27 16.3516 13.2633ZM15.507 20.4489C15.9954 20.4489 16.4024 20.4049 16.728 20.3168C17.0536 20.2287 17.3521 20.0966 17.6234 19.9204C17.8948 19.7442 18.1525 19.5274 18.3967 19.2699C18.6409 19.0125 18.9292 18.7211 19.2616 18.3959C19.4448 18.2129 19.5363 17.9927 19.5363 17.7352C19.5363 17.6133 19.4889 17.471 19.3939 17.3084C19.2989 17.1457 19.17 16.9696 19.0072 16.7799C18.8444 16.5901 18.6715 16.4038 18.4883 16.2209C18.3052 16.0379 18.1152 15.855 17.9185 15.672C17.7218 15.4891 17.5488 15.3299 17.3996 15.1943C17.2503 15.0588 17.1249 14.9402 17.0231 14.8386C16.84 14.6557 16.6161 14.5642 16.3516 14.5642C16.1752 14.5642 16.0124 14.615 15.8631 14.7167C15.7139 14.8183 15.5647 14.9436 15.4154 15.0927C15.2662 15.2418 15.1136 15.4044 14.9576 15.5806C14.8016 15.7567 14.6252 15.9227 14.4285 16.0786C14.2318 16.2344 14.0215 16.3598 13.7976 16.4546C13.5738 16.5495 13.3058 16.6003 12.9938 16.6071C12.6953 16.6071 12.4104 16.5529 12.1391 16.4445C11.8677 16.3361 11.6235 16.1734 11.4065 15.9566L5.80003 10.3565C5.58975 10.1464 5.43034 9.90588 5.3218 9.63485C5.21327 9.36382 5.15561 9.07585 5.14883 8.77095C5.14883 8.47281 5.1997 8.20856 5.30145 7.97819C5.4032 7.74781 5.5287 7.53438 5.67793 7.33788C5.82716 7.14138 5.98996 6.9686 6.16633 6.81954C6.3427 6.67047 6.50889 6.51463 6.66491 6.35201C6.82093 6.18939 6.94642 6.04033 7.04139 5.90481C7.13635 5.7693 7.18723 5.60668 7.19401 5.41696C7.19401 5.15271 7.10244 4.92911 6.91928 4.74616C6.8311 4.65808 6.71578 4.53612 6.57333 4.38027C6.43088 4.22443 6.27147 4.05165 6.09511 3.86193C5.91874 3.67221 5.73559 3.48249 5.54565 3.29277C5.35572 3.10305 5.16579 2.92688 4.97585 2.76426C4.78592 2.60164 4.61294 2.47629 4.45692 2.38821C4.30091 2.30012 4.15506 2.24931 4.0194 2.23575C3.76163 2.23575 3.54117 2.32723 3.35802 2.51017L2.49314 3.37408C2.24216 3.62478 2.02509 3.88226 1.84194 4.14651C1.65879 4.41076 1.52312 4.70551 1.43494 5.03074C1.34675 5.35598 1.29927 5.76252 1.29249 6.25038C1.29249 7.00926 1.41459 7.79185 1.65879 8.59817C1.90299 9.40448 2.24555 10.2108 2.68647 11.0171C3.12738 11.8234 3.64631 12.6162 4.24325 13.3954C4.84018 14.1746 5.49139 14.9165 6.19686 15.6212C6.90233 16.3259 7.6451 16.9696 8.42519 17.5523C9.20528 18.135 9.99893 18.6432 10.8062 19.0768C11.6134 19.5105 12.4138 19.8459 13.2075 20.083C14.0011 20.3202 14.7676 20.4421 15.507 20.4489Z" fill="#00A84F"/>
</svg>
